<svg xmlns="http://www.w3.org/2000/svg" id="134764472" viewBox="0 0 435.3157894736842 139.0625">
          <defs id="SvgjsDefs1060"/>
          <g id="SvgjsG1061" featurekey="symbolContainer" transform="matrix(1.390625,0,0,1.390625,0,0)" fill="#000000">
            <path xmlns="http://www.w3.org/2000/svg" d="M0 0h100v100H0z"/>
          </g>
          <g id="SvgjsG1062" featurekey="monogramFeature-0" transform="matrix(1.9807585099761034,0,0,1.9807585099761034,27.057724942321318,-4.711370093647478)" fill="#ffffff">
            <path d="M10.38 46.92 l0 -23.28 l-1.44 -0.42 c-0.48 -0.18 -0.84 -0.66 -0.84 -1.14 l0 -5.94 c0 -0.42 0.42 -1.14 0.9 -1.14 l10.98 0 c0.54 0 0.96 0.78 0.96 1.26 l0 5.64 c0 1.32 -1.2 1.38 -2.4 1.74 l0 6.84 l6.12 0 l0 -0.24 l4.14 -3.12 l0 0.78 l-3.48 2.58 l1.26 0 l2.22 -1.68 l0 0.78 l-1.26 0.9 l2.22 0 l0 -6.84 l-1.56 -0.48 c-0.54 -0.12 -0.78 -0.72 -0.78 -1.26 l0 -5.64 c0 -0.48 0.36 -1.26 0.96 -1.26 l10.92 0 c0.48 0 0.9 0.66 0.9 1.08 l0 6 c0 0.54 -0.36 0.96 -0.84 1.14 l-1.44 0.42 l0 23.28 l1.5 0.54 c0.42 0.12 0.78 0.54 0.78 1.02 l0 6.06 c0 0.42 -0.48 1.08 -0.96 1.08 l-10.86 0 c-0.6 0 -0.96 -0.72 -0.96 -1.26 l0 -5.64 l0 -0.3 c-0.66 0.24 -0.84 0.54 -0.96 1.26 l-1.8 1.32 l0 -0.72 l2.82 -2.1 c0.12 -0.12 0.18 -0.3 0.3 -0.42 c0.18 -0.24 0.72 -0.42 1.02 -0.54 l0.96 -0.3 l0 -7.5 l-11.22 0 l0 1.02 l0.12 0 l-0.12 0.12 l0 0.96 l1.38 -1.08 l0.96 0 l-2.34 1.74 l0 0.96 l3.6 -2.7 l0.96 0 l-4.44 3.36 c-0.06 0 -0.06 0 -0.12 0.06 l0 3.06 l1.62 0.54 c0.48 0.18 0.78 0.78 0.78 1.26 l0 5.58 c0 0.6 -0.42 1.32 -1.02 1.32 l-10.86 0 c-0.54 0 -0.96 -0.66 -0.96 -1.14 l0 -5.94 l0 -0.12 c-0.3 0.18 -0.6 0.24 -0.78 0.54 l-1.98 1.5 l0 -0.72 l4.08 -3.06 l0 0.6 z M4.38 19.380000000000003 l-1.38 1.02 c0 -0.72 0.78 -1.02 1.38 -1.02 z M3 21.36 l2.7 -1.98 l0.96 0 l-3.66 2.76 l0 -0.78 z M22.44 20.159999999999997 l1.02 -0.78 l1.02 0 l-2.16 1.56 l0 -0.18 c0 -0.12 0 -0.48 0.12 -0.6 z M22.32 21.9 l3.42 -2.52 l0.72 0 l0 0.18 l-4.14 3.06 l0 -0.72 z M3 23.759999999999998 l0 -0.72 l4.08 -3.06 l0 0.72 z M22.32 23.58 l4.14 -3.06 l0 0.72 l-4.14 3.06 l0 -0.72 z M3 24.72 l4.08 -3.06 l0 0.72 l-4.08 3.06 l0 -0.72 z M22.32 25.979999999999997 l0 -0.72 l4.14 -3.06 l0 0.72 z M3 26.46 c0 -0.06 0 -0.06 0.06 -0.12 l4.08 -3 c0.06 0.06 0.18 0.36 0.24 0.48 l-4.2 3.18 c-0.06 0.06 -0.18 -0.48 -0.18 -0.54 z M22.44 26.880000000000003 l0.06 -0.06 l4.14 -3.12 c0.12 0.18 0.3 0.3 0.42 0.42 l-4.32 3.24 c-0.06 0 -0.3 -0.42 -0.3 -0.48 z M3.72 27.54 l4.38 -3.24 l0.66 0.18 l-4.38 3.3 z M24.18 27.9 l-0.66 -0.18 l4.38 -3.24 c0.18 0 0.6 0.12 0.72 0.18 l-4.32 3.18 c-0.06 0.06 0 0.06 -0.12 0.06 z M5.34 28.02 l4.08 -3.06 l0 0.72 l-4.08 3.06 l0 -0.72 z M24.66 29.28 l0 -0.72 l4.14 -3.06 l0 0.72 z M5.34 30.42 l0 -0.72 l4.08 -3.06 l0 0.72 z M5.34 32.04 l0 -0.66 l4.08 -3.06 l0 0.66 z M5.34 33 l4.08 -3.12 l0 0.78 l-4.08 3.06 l0 -0.72 z M5.34 34.68 l4.08 -3.12 l0 0.72 l-4.08 3.12 l0 -0.72 z M5.34 37.08 l0 -0.72 l4.08 -3.12 l0 0.72 z M5.34 38.04 l4.08 -3.12 l0 0.72 l-4.08 3.12 l0 -0.72 z M5.34 39.66 l4.08 -3.06 l0 0.72 l-4.08 3.12 l0 -0.78 z M5.34 42.06 l0 -0.72 l4.08 -3.06 l0 0.72 z M5.34 43.739999999999995 l0 -0.72 l4.08 -3.06 l0 0.72 z M19.92 43.8 l4.44 -3.36 l0.96 0 l-4.5 3.36 l-0.9 0 z M23.1 43.8 l-1.02 0 l4.5 -3.36 l0.96 0 z M24.36 43.86 l4.44 -3.36 l0 0.72 l-4.14 3.12 l0 -0.48 l-0.3 0 z M5.34 44.7 l4.08 -3.06 l0 0.72 l-4.08 3.06 l0 -0.72 z M24.66 45.3 l4.14 -3.12 l0 0.72 l-4.14 3.12 l0 -0.72 z M5.34 47.1 l0 -0.72 l4.08 -3.06 l0 0.72 z M24.66 47.64 l0 -0.72 l4.02 -3 c0.06 0 0.06 -0.06 0.12 -0.06 l0 0.72 l-4.08 3.06 l-0.06 0 z M5.34 48.78 l0 -0.72 l4.08 -3.06 l0 0.72 z M24.66 49.38 l0 -0.78 l4.14 -3.06 l0 0.72 z M3 53.16 l4.08 -3.06 l0 0.66 l-4.08 3.06 l0 -0.66 z M22.32 53.7 l4.14 -3.06 l0 0.72 l-4.14 3.06 l0 -0.72 z M23.82 51.6 l0.06 0 l-1.44 1.08 c0.06 -0.54 0.78 -1.08 1.38 -1.08 z M3 55.5 l0 -0.72 l4.08 -3.06 l0 0.72 z M22.32 55.38 l4.14 -3.06 l0 0.72 l-4.14 3.06 l0 -0.72 z M3 56.46 l4.08 -3.06 l0 0.72 l-4.08 3.06 l0 -0.72 z M22.32 57.78 l0 -0.72 l4.14 -3.06 l0 0.72 z M3 58.86 l0 -0.72 l4.02 -3.06 c0.06 0.18 0.12 0.48 0.12 0.66 z M22.32 58.74 l4.14 -3.12 l0.18 0.54 l-4.14 3.12 c-0.12 -0.12 -0.18 -0.36 -0.18 -0.54 z M3.3 59.58 l4.2 -3.12 c0.3 0.12 0.54 0.06 0.72 0.18 l-4.44 3.3 c-0.06 0 -0.48 -0.24 -0.48 -0.36 z M22.92 59.88 l4.38 -3.24 l0.96 0 l-4.5 3.36 l-0.54 0 c-0.06 0 -0.24 -0.06 -0.3 -0.12 z M4.98 60 l4.5 -3.36 l0.96 0 l-4.44 3.36 l-1.02 0 z M7.26 60 l4.44 -3.36 l0.96 0 l-4.44 3.36 l-0.96 0 z M9.48 60 l4.44 -3.36 l1.02 0 l-4.5 3.36 l-0.96 0 z M25.08 60 l4.44 -3.36 l0.96 0 l-4.44 3.36 l-0.96 0 z M27.3 60 l4.44 -3.36 l0.96 0 l-4.44 3.36 l-0.96 0 z M29.52 60 l4.44 -3.36 l1.02 0 l-4.5 3.36 l-0.96 0 z M11.7 60 l4.08 -3.06 l0 0.72 l-3.12 2.34 l-0.96 0 z M31.74 60 l3.36 -2.52 l0 0.72 l-2.34 1.8 l-1.02 0 z M13.98 60 l1.8 -1.38 l0 0.12 c0 0.24 0 0.6 -0.24 0.78 l-0.6 0.48 l-0.96 0 z M34.02 60 l0 -0.06 l0.96 -0.72 l0 0.06 c0 0.36 -0.6 0.72 -0.96 0.72 z">
            </path>
          </g>
          <g id="SvgjsG1063" featurekey="nameFeature-0" transform="matrix(1.1055108587225182,0,0,1.1055108587225182,156.78897828255495,8.944893521369442)" fill="#000000">
            <path d="M6.92 31.28 l0 -15.52 l-0.96 -0.28 c-0.32 -0.12 -0.56 -0.44 -0.56 -0.76 l0 -3.96 c0 -0.28 0.28 -0.76 0.6 -0.76 l7.32 0 c0.36 0 0.64 0.52 0.64 0.84 l0 3.76 c0 0.88 -0.8 0.92 -1.6 1.16 l0 4.56 l4.08 0 l0 -0.16 l2.76 -2.08 l0 0.52 l-2.32 1.72 l0.84 0 l1.48 -1.12 l0 0.52 l-0.84 0.6 l1.48 0 l0 -4.56 l-1.04 -0.32 c-0.36 -0.08 -0.52 -0.48 -0.52 -0.84 l0 -3.76 c0 -0.32 0.24 -0.84 0.64 -0.84 l7.28 0 c0.32 0 0.6 0.44 0.6 0.72 l0 4 c0 0.36 -0.24 0.64 -0.56 0.76 l-0.96 0.28 l0 15.52 l1 0.36 c0.28 0.08 0.52 0.36 0.52 0.68 l0 4.04 c0 0.28 -0.32 0.72 -0.64 0.72 l-7.24 0 c-0.4 0 -0.64 -0.48 -0.64 -0.84 l0 -3.76 l0 -0.2 c-0.44 0.16 -0.56 0.36 -0.64 0.84 l-1.2 0.88 l0 -0.48 l1.88 -1.4 c0.08 -0.08 0.12 -0.2 0.2 -0.28 c0.12 -0.16 0.48 -0.28 0.68 -0.36 l0.64 -0.2 l0 -5 l-7.48 0 l0 0.68 l0.08 0 l-0.08 0.08 l0 0.64 l0.92 -0.72 l0.64 0 l-1.56 1.16 l0 0.64 l2.4 -1.8 l0.64 0 l-2.96 2.24 c-0.04 0 -0.04 0 -0.08 0.04 l0 2.04 l1.08 0.36 c0.32 0.12 0.52 0.52 0.52 0.84 l0 3.72 c0 0.4 -0.28 0.88 -0.68 0.88 l-7.24 0 c-0.36 0 -0.64 -0.44 -0.64 -0.76 l0 -3.96 l0 -0.08 c-0.2 0.12 -0.4 0.16 -0.52 0.36 l-1.32 1 l0 -0.48 l2.72 -2.04 l0 0.4 z M2.92 12.920000000000002 l-0.92 0.68 c0 -0.48 0.52 -0.68 0.92 -0.68 z M2 14.239999999999998 l1.8 -1.32 l0.64 0 l-2.44 1.84 l0 -0.52 z M14.96 13.440000000000001 l0.68 -0.52 l0.68 0 l-1.44 1.04 l0 -0.12 c0 -0.08 0 -0.32 0.08 -0.4 z M14.88 14.600000000000001 l2.28 -1.68 l0.48 0 l0 0.12 l-2.76 2.04 l0 -0.48 z M2 15.84 l0 -0.48 l2.72 -2.04 l0 0.48 z M14.88 15.719999999999999 l2.76 -2.04 l0 0.48 l-2.76 2.04 l0 -0.48 z M2 16.48 l2.72 -2.04 l0 0.48 l-2.72 2.04 l0 -0.48 z M14.88 17.32 l0 -0.48 l2.76 -2.04 l0 0.48 z M2 17.64 c0 -0.04 0 -0.04 0.04 -0.08 l2.72 -2 c0.04 0.04 0.12 0.24 0.16 0.32 l-2.8 2.12 c-0.04 0.04 -0.12 -0.32 -0.12 -0.36 z M14.96 17.92 l0.04 -0.04 l2.76 -2.08 c0.08 0.12 0.2 0.2 0.28 0.28 l-2.88 2.16 c-0.04 0 -0.2 -0.28 -0.2 -0.32 z M2.48 18.36 l2.92 -2.16 l0.44 0.12 l-2.92 2.2 z M16.12 18.6 l-0.44 -0.12 l2.92 -2.16 c0.12 0 0.4 0.08 0.48 0.12 l-2.88 2.12 c-0.04 0.04 0 0.04 -0.08 0.04 z M3.56 18.68 l2.72 -2.04 l0 0.48 l-2.72 2.04 l0 -0.48 z M16.44 19.52 l0 -0.48 l2.76 -2.04 l0 0.48 z M3.56 20.28 l0 -0.48 l2.72 -2.04 l0 0.48 z M3.56 21.36 l0 -0.44 l2.72 -2.04 l0 0.44 z M3.56 22 l2.72 -2.08 l0 0.52 l-2.72 2.04 l0 -0.48 z M3.56 23.12 l2.72 -2.08 l0 0.48 l-2.72 2.08 l0 -0.48 z M3.56 24.72 l0 -0.48 l2.72 -2.08 l0 0.48 z M3.56 25.36 l2.72 -2.08 l0 0.48 l-2.72 2.08 l0 -0.48 z M3.56 26.439999999999998 l2.72 -2.04 l0 0.48 l-2.72 2.08 l0 -0.52 z M3.56 28.04 l0 -0.48 l2.72 -2.04 l0 0.48 z M3.56 29.16 l0 -0.48 l2.72 -2.04 l0 0.48 z M13.28 29.2 l2.96 -2.24 l0.64 0 l-3 2.24 l-0.6 0 z M15.4 29.2 l-0.68 0 l3 -2.24 l0.64 0 z M16.24 29.240000000000002 l2.96 -2.24 l0 0.48 l-2.76 2.08 l0 -0.32 l-0.2 0 z M3.56 29.8 l2.72 -2.04 l0 0.48 l-2.72 2.04 l0 -0.48 z M16.44 30.2 l2.76 -2.08 l0 0.48 l-2.76 2.08 l0 -0.48 z M3.56 31.4 l0 -0.48 l2.72 -2.04 l0 0.48 z M16.44 31.759999999999998 l0 -0.48 l2.68 -2 c0.04 0 0.04 -0.04 0.08 -0.04 l0 0.48 l-2.72 2.04 l-0.04 0 z M3.56 32.519999999999996 l0 -0.48 l2.72 -2.04 l0 0.48 z M16.44 32.92 l0 -0.52 l2.76 -2.04 l0 0.48 z M2 35.44 l2.72 -2.04 l0 0.44 l-2.72 2.04 l0 -0.44 z M14.88 35.8 l2.76 -2.04 l0 0.48 l-2.76 2.04 l0 -0.48 z M15.88 34.4 l0.04 0 l-0.96 0.72 c0.04 -0.36 0.52 -0.72 0.92 -0.72 z M2 37 l0 -0.48 l2.72 -2.04 l0 0.48 z M14.88 36.92 l2.76 -2.04 l0 0.48 l-2.76 2.04 l0 -0.48 z M2 37.64 l2.72 -2.04 l0 0.48 l-2.72 2.04 l0 -0.48 z M14.88 38.52 l0 -0.48 l2.76 -2.04 l0 0.48 z M2 39.24 l0 -0.48 l2.68 -2.04 c0.04 0.12 0.08 0.32 0.08 0.44 z M14.88 39.16 l2.76 -2.08 l0.12 0.36 l-2.76 2.08 c-0.08 -0.08 -0.12 -0.24 -0.12 -0.36 z M2.2 39.72 l2.8 -2.08 c0.2 0.08 0.36 0.04 0.48 0.12 l-2.96 2.2 c-0.04 0 -0.32 -0.16 -0.32 -0.24 z M15.28 39.92 l2.92 -2.16 l0.64 0 l-3 2.24 l-0.36 0 c-0.04 0 -0.16 -0.04 -0.2 -0.08 z M3.32 40 l3 -2.24 l0.64 0 l-2.96 2.24 l-0.68 0 z M4.84 40 l2.96 -2.24 l0.64 0 l-2.96 2.24 l-0.64 0 z M6.32 40 l2.96 -2.24 l0.68 0 l-3 2.24 l-0.64 0 z M16.72 40 l2.96 -2.24 l0.64 0 l-2.96 2.24 l-0.64 0 z M18.2 40 l2.96 -2.24 l0.64 0 l-2.96 2.24 l-0.64 0 z M19.68 40 l2.96 -2.24 l0.68 0 l-3 2.24 l-0.64 0 z M7.8 40 l2.72 -2.04 l0 0.48 l-2.08 1.56 l-0.64 0 z M21.16 40 l2.24 -1.68 l0 0.48 l-1.56 1.2 l-0.68 0 z M9.32 40 l1.2 -0.92 l0 0.08 c0 0.16 0 0.4 -0.16 0.52 l-0.4 0.32 l-0.64 0 z M22.68 40 l0 -0.04 l0.64 -0.48 l0 0.04 c0 0.24 -0.4 0.48 -0.64 0.48 z M41.108000000000004 31.28 l0 -15.52 l-1.04 -0.36 c-0.28 -0.08 -0.48 -0.44 -0.48 -0.72 l0 -3.88 c0 -0.28 0.28 -0.8 0.6 -0.8 l15.88 0 c0.32 0 0.6 0.44 0.6 0.72 l0 6.4 c0 0.28 -0.32 0.72 -0.6 0.72 l-3.24 0 c-0.28 0 -0.52 -0.4 -0.56 -0.64 l-0.28 -1.24 l-5.44 0 l0 0.68 l0.6 0 l-0.6 0.44 l0 0.64 l1.44 -1.08 l0.64 0 l-2.08 1.56 l0 0.64 l2.92 -2.2 l0.68 0 l-3 2.24 l-0.6 0 l0 1.56 l2.44 0 l-0.04 -0.04 l0.04 -0.04 l2.8 -2.08 c0.08 0.08 0.2 0.16 0.32 0.24 l-2.56 1.92 l0.84 0 l2.52 -1.88 l0.36 0 l0 0.2 l-2.24 1.68 l0.44 0 c0.08 0 0.16 0.08 0.28 0.08 l1.52 -1.12 l0 0.48 l-1.2 0.92 l-0.12 0 c0.04 0.08 0.12 0.24 0.12 0.4 l0 4.28 c0 0.4 -0.32 0.76 -0.72 0.76 l-4.8 0 l0 0.68 l0.24 0 c-0.04 0.04 -0.2 0.16 -0.24 0.2 l0 0.6 l1.08 -0.8 l0.64 0 l-1.72 1.32 l0 0.6 l2.12 -1.56 l0 0.48 l-1.88 1.4 l-0.24 0 l0 1.96 l5.52 0 l0.32 -1.32 c0.04 -0.24 0.28 -0.6 0.6 -0.6 l3.12 0 c0.32 0 0.64 0.44 0.64 0.76 l0 6.4 c0 0.28 -0.32 0.72 -0.64 0.72 l-15.88 0 c-0.32 0 -0.64 -0.48 -0.64 -0.8 l0 -4 c-0.2 0.08 -0.4 0.16 -0.52 0.36 c-0.04 0.04 -0.04 0.12 -0.08 0.16 l-1.24 0.92 l0 -0.48 l2.72 -2.04 l0 0.32 c0.08 -0.04 0.52 -0.16 0.64 -0.24 z M36.828 12.920000000000002 l0.44 0 l-1.08 0.8 c0 -0.32 0.28 -0.8 0.64 -0.8 z M36.188 14.84 l0 -0.48 l1.92 -1.44 l0.64 0 z M36.188 15.48 l2.72 -2.08 l0 0.52 l-2.72 2.04 l0 -0.48 z M36.188 17.08 l0 -0.48 l2.68 -2.04 l0.04 0 l0 0.44 z M36.188 17.68 l2.76 -2.04 c0.12 0.12 0.16 0.2 0.24 0.32 l-2.84 2.08 c-0.04 0 -0.16 -0.28 -0.16 -0.36 z M37.228 18.52 l-0.44 -0.16 l2.88 -2.16 l0.04 0 l0.44 0.12 z M47.988 18.88 l3 -2.24 l0.32 0 c0.04 0.04 0.04 0.12 0.04 0.2 l-2.72 2.04 l-0.04 0 l-0.6 0 z M37.748000000000005 19.28 l0 -0.52 l2.72 -2.04 l0 0.48 z M48.788000000000004 19.88 l-0.08 -0.44 l2.76 -2.04 l0.04 -0.04 l0.08 0.44 z M37.748000000000005 19.88 l2.72 -2.04 l0 0.44 l-2.72 2.04 l0 -0.44 z M37.748000000000005 20.96 l2.72 -2.04 l0 0.48 l-2.72 2.04 l0 -0.48 z M37.748000000000005 22.56 l0 -0.48 l2.72 -2.04 l0 0.48 z M37.748000000000005 23.68 l0 -0.48 l2.72 -2.04 l0 0.48 z M37.748000000000005 24.32 l2.72 -2.04 l0 0.48 l-2.72 2.04 l0 -0.48 z M37.748000000000005 25.92 l0 -0.48 l2.72 -2.04 l0 0.48 z M37.748000000000005 27.04 l0 -0.48 l2.72 -2.04 l0 0.48 z M37.748000000000005 27.68 l2.72 -2.08 l0 0.52 l-2.72 2.04 l0 -0.48 z M37.748000000000005 28.8 l2.72 -2.08 l0 0.52 l-2.72 2.04 l0 -0.48 z M37.748000000000005 30.4 l0 -0.48 l2.72 -2.08 l0 0.52 z M48.068000000000005 29.16 l-0.44 0 l1.04 -0.76 c0 0.32 -0.24 0.76 -0.6 0.76 z M37.748000000000005 31.04 l2.72 -2.08 l0 0.48 l-2.72 2.08 l0 -0.48 z M37.748000000000005 32.12 l2.72 -2.04 l0 0.48 l-2.72 2.08 l0 -0.52 z M36.188 35.480000000000004 l2.72 -2.04 l0 0.48 l-2.72 2.08 l0 -0.52 z M36.188 36.6 l2.72 -2.04 l0 0.48 l-2.72 2.08 l0 -0.52 z M36.188 38.24 l0 -0.52 l2.72 -2.04 l0 0.48 z M36.188 38.84 l2.72 -2.04 c0.04 0.16 0.08 0.28 0.08 0.44 l-0.04 0.04 l-2.72 2 l-0.04 0.04 l0 -0.48 z M36.428000000000004 39.8 l2.84 -2.12 c0.2 0.08 0.32 0.08 0.52 0.08 l-2.96 2.24 c-0.16 0 -0.32 -0.12 -0.4 -0.2 z M37.668 40 l2.96 -2.24 l0.64 0 l-2.96 2.24 l-0.64 0 z M39.788000000000004 40 l-0.64 0 l2.96 -2.24 l0.64 0 z M41.268 40 l-0.64 0 l2.92 -2.2 c0.04 -0.04 0.08 -0.04 0.08 -0.04 l0.64 0 z M42.108000000000004 40 l3 -2.24 l0.64 0 l-2.92 2.2 c-0.04 0.04 -0.04 0.04 -0.08 0.04 l-0.64 0 z M43.628 40 l2.96 -2.24 l0.64 0 l-2.96 2.24 l-0.64 0 z M45.748000000000005 40 l-0.64 0 l2.96 -2.24 l0.68 0 z M46.588 40 l3 -2.24 l0.56 0 l-2.96 2.24 l-0.6 0 z M48.668000000000006 40 l-0.64 0 l2.96 -2.24 l0.68 0 z M49.508 40 l3 -2.24 l0.64 0 l-2.96 2.24 l-0.68 0 z M51.028000000000006 40 l2.32 -1.76 l0 0.48 l-1.68 1.28 l-0.64 0 z M52.508 40 l0.84 -0.6 c0 0.32 -0.4 0.6 -0.72 0.6 l-0.12 0 z M71.056 31.28 l0 -15.52 l-0.96 -0.28 c-0.32 -0.12 -0.56 -0.44 -0.56 -0.76 l0 -3.96 c0 -0.28 0.28 -0.76 0.6 -0.76 l7.32 0 c0.36 0 0.64 0.48 0.64 0.8 l0 3.8 c0 0.92 -0.88 0.96 -1.56 1.16 l-0.04 0 l0 15.36 l4.88 0 l0.32 -1.32 c0.04 -0.24 0.32 -0.6 0.6 -0.6 l3.12 0 c0.32 0 0.64 0.44 0.64 0.76 l0 6.4 c0 0.28 -0.32 0.72 -0.64 0.72 l-15.24 0 c-0.32 0 -0.64 -0.48 -0.64 -0.8 l0 -3.92 c0 -0.32 0.24 -0.64 0.52 -0.72 z M66.136 13.879999999999999 l1.28 -0.96 l0.64 0 l-1.92 1.44 l0 -0.48 z M66.136 15.48 l0 -0.48 l2.68 -2.04 l0.04 0 l0 0.44 z M66.136 16.12 l2.72 -2.08 l0 0.48 l-2.72 2.08 l0 -0.48 z M66.136 17.2 l2.72 -2 l0 -0.04 c0.04 0.16 0.04 0.32 0.08 0.44 l-2.8 2.08 l0 -0.48 z M66.336 18.2 l2.88 -2.16 c0.12 0.08 0.24 0.12 0.4 0.16 l-2.92 2.2 c-0.12 0 -0.28 -0.12 -0.36 -0.2 z M67.696 18.68 l-0.4 -0.12 l2.92 -2.16 c0.04 0 0.2 0.04 0.2 0.04 l0 0.28 l-2.72 2.04 l0 -0.08 z M67.696 19.4 l2.72 -2.04 l0 0.44 l-2.72 2.04 l0 -0.44 z M67.696 20.96 l0 -0.48 l2.72 -2.04 l0 0.48 z M67.696 21.6 l2.72 -2.04 l0 0.48 l-2.72 2.04 l0 -0.48 z M67.696 22.72 l2.72 -2.04 l0 0.48 l-2.72 2.04 l0 -0.48 z M67.696 24.32 l0 -0.48 l2.72 -2.04 l0 0.48 z M67.696 25.439999999999998 l0 -0.48 l2.72 -2.04 l0 0.48 z M67.696 26.08 l2.72 -2.08 l0 0.52 l-2.72 2.04 l0 -0.48 z M67.696 27.68 l0 -0.48 l2.72 -2.08 l0 0.52 z M67.696 28.8 l0 -0.48 l2.72 -2.08 l0 0.48 z M67.696 29.439999999999998 l2.72 -2.08 l0 0.48 l-2.72 2.08 l0 -0.48 z M67.696 30.52 l2.72 -2.04 l0 0.48 l-2.72 2.08 l0 -0.52 z M67.696 32.16 l0 -0.52 l2.72 -2.04 l0 0.48 z M67.696 32.76 l2.72 -2.04 l0 0.44 l-2.72 2.08 l0 -0.48 z M67.696 34.24 l0 -0.36 l1.2 -0.92 c0 0.2 0 0.48 -0.04 0.48 l-2.72 2.04 l0 -0.08 c0 -0.16 0 -0.36 0.12 -0.48 l0.56 -0.4 z M66.136 36.6 l0 -0.48 l2.72 -2.04 l0 0.48 z M66.136 37.24 l2.72 -2.04 l0 0.48 l-2.72 2.04 l0 -0.48 z M66.136 38.36 l2.72 -2.04 l0 0.48 l-2.72 2.04 l0 -0.48 z M66.176 39.44 l2.76 -2.08 l0.04 0 c0.08 0.12 0.16 0.2 0.28 0.28 l-2.88 2.16 c-0.04 -0.04 -0.2 -0.32 -0.2 -0.36 z M66.93599999999999 40 l3 -2.24 l0.64 0 l-2.96 2.24 l-0.68 0 z M69.09599999999999 40 l-0.64 0 l2.96 -2.24 l0.64 0 z M69.93599999999999 40 l2.96 -2.24 l0.68 0 l-3 2.24 l-0.64 0 z M71.416 40 l3 -2.24 l0.64 0 l-2.96 2.24 l-0.68 0 z M72.93599999999999 40 l2.96 -2.24 l0.64 0 l-2.96 2.24 l-0.64 0 z M75.056 40 l-0.64 0 l2.96 -2.24 l0.68 0 z M75.896 40 l3 -2.24 l0.56 0 l-2.96 2.24 l-0.6 0 z M77.336 40 l2.96 -2.24 l0.68 0 l-3 2.24 l-0.64 0 z M78.816 40 l3 -2.24 l0.64 0 l-2.96 2.24 l-0.68 0 z M80.976 40 l-0.64 0 l2.32 -1.76 l0 0.48 z M81.816 40 l0.84 -0.64 c0 0.32 -0.4 0.64 -0.72 0.64 l-0.12 0 z M100.36399999999999 31.28 l0 -15.52 l-0.96 -0.28 c-0.32 -0.12 -0.56 -0.44 -0.56 -0.76 l0 -3.96 c0 -0.28 0.28 -0.76 0.6 -0.76 l7.32 0 c0.36 0 0.64 0.48 0.64 0.8 l0 3.8 c0 0.92 -0.88 0.96 -1.56 1.16 l-0.04 0 l0 15.36 l4.88 0 l0.32 -1.32 c0.04 -0.24 0.32 -0.6 0.6 -0.6 l3.12 0 c0.32 0 0.64 0.44 0.64 0.76 l0 6.4 c0 0.28 -0.32 0.72 -0.64 0.72 l-15.24 0 c-0.32 0 -0.64 -0.48 -0.64 -0.8 l0 -3.92 c0 -0.32 0.24 -0.64 0.52 -0.72 z M95.44399999999999 13.879999999999999 l1.28 -0.96 l0.64 0 l-1.92 1.44 l0 -0.48 z M95.44399999999999 15.48 l0 -0.48 l2.68 -2.04 l0.04 0 l0 0.44 z M95.44399999999999 16.12 l2.72 -2.08 l0 0.48 l-2.72 2.08 l0 -0.48 z M95.44399999999999 17.2 l2.72 -2 l0 -0.04 c0.04 0.16 0.04 0.32 0.08 0.44 l-2.8 2.08 l0 -0.48 z M95.64399999999999 18.2 l2.88 -2.16 c0.12 0.08 0.24 0.12 0.4 0.16 l-2.92 2.2 c-0.12 0 -0.28 -0.12 -0.36 -0.2 z M97.00399999999999 18.68 l-0.4 -0.12 l2.92 -2.16 c0.04 0 0.2 0.04 0.2 0.04 l0 0.28 l-2.72 2.04 l0 -0.08 z M97.00399999999999 19.4 l2.72 -2.04 l0 0.44 l-2.72 2.04 l0 -0.44 z M97.00399999999999 20.96 l0 -0.48 l2.72 -2.04 l0 0.48 z M97.00399999999999 21.6 l2.72 -2.04 l0 0.48 l-2.72 2.04 l0 -0.48 z M97.00399999999999 22.72 l2.72 -2.04 l0 0.48 l-2.72 2.04 l0 -0.48 z M97.00399999999999 24.32 l0 -0.48 l2.72 -2.04 l0 0.48 z M97.00399999999999 25.439999999999998 l0 -0.48 l2.72 -2.04 l0 0.48 z M97.00399999999999 26.08 l2.72 -2.08 l0 0.52 l-2.72 2.04 l0 -0.48 z M97.00399999999999 27.68 l0 -0.48 l2.72 -2.08 l0 0.52 z M97.00399999999999 28.8 l0 -0.48 l2.72 -2.08 l0 0.48 z M97.00399999999999 29.439999999999998 l2.72 -2.08 l0 0.48 l-2.72 2.08 l0 -0.48 z M97.00399999999999 30.52 l2.72 -2.04 l0 0.48 l-2.72 2.08 l0 -0.52 z M97.00399999999999 32.16 l0 -0.52 l2.72 -2.04 l0 0.48 z M97.00399999999999 32.76 l2.72 -2.04 l0 0.44 l-2.72 2.08 l0 -0.48 z M97.00399999999999 34.24 l0 -0.36 l1.2 -0.92 c0 0.2 0 0.48 -0.04 0.48 l-2.72 2.04 l0 -0.08 c0 -0.16 0 -0.36 0.12 -0.48 l0.56 -0.4 z M95.44399999999999 36.6 l0 -0.48 l2.72 -2.04 l0 0.48 z M95.44399999999999 37.24 l2.72 -2.04 l0 0.48 l-2.72 2.04 l0 -0.48 z M95.44399999999999 38.36 l2.72 -2.04 l0 0.48 l-2.72 2.04 l0 -0.48 z M95.484 39.44 l2.76 -2.08 l0.04 0 c0.08 0.12 0.16 0.2 0.28 0.28 l-2.88 2.16 c-0.04 -0.04 -0.2 -0.32 -0.2 -0.36 z M96.24399999999999 40 l3 -2.24 l0.64 0 l-2.96 2.24 l-0.68 0 z M98.40399999999998 40 l-0.64 0 l2.96 -2.24 l0.64 0 z M99.24399999999999 40 l2.96 -2.24 l0.68 0 l-3 2.24 l-0.64 0 z M100.72399999999999 40 l3 -2.24 l0.64 0 l-2.96 2.24 l-0.68 0 z M102.24399999999999 40 l2.96 -2.24 l0.64 0 l-2.96 2.24 l-0.64 0 z M104.36399999999999 40 l-0.64 0 l2.96 -2.24 l0.68 0 z M105.204 40 l3 -2.24 l0.56 0 l-2.96 2.24 l-0.6 0 z M106.64399999999999 40 l2.96 -2.24 l0.68 0 l-3 2.24 l-0.64 0 z M108.124 40 l3 -2.24 l0.64 0 l-2.96 2.24 l-0.68 0 z M110.28399999999999 40 l-0.64 0 l2.32 -1.76 l0 0.48 z M111.124 40 l0.84 -0.64 c0 0.32 -0.4 0.64 -0.72 0.64 l-0.12 0 z M145.05999999999997 31.28 l0 -15.52 l-0.96 -0.28 c-0.32 -0.12 -0.56 -0.44 -0.56 -0.76 l0 -3.96 c0 -0.28 0.28 -0.76 0.6 -0.76 l7.32 0 c0.36 0 0.64 0.48 0.64 0.8 l0 3.8 c0 0.92 -0.88 0.96 -1.56 1.16 l-0.04 0 l0 15.36 l4.88 0 l0.32 -1.32 c0.04 -0.24 0.32 -0.6 0.6 -0.6 l3.12 0 c0.32 0 0.64 0.44 0.64 0.76 l0 6.4 c0 0.28 -0.32 0.72 -0.64 0.72 l-15.24 0 c-0.32 0 -0.64 -0.48 -0.64 -0.8 l0 -3.92 c0 -0.32 0.24 -0.64 0.52 -0.72 z M140.14 13.879999999999999 l1.28 -0.96 l0.64 0 l-1.92 1.44 l0 -0.48 z M140.14 15.48 l0 -0.48 l2.68 -2.04 l0.04 0 l0 0.44 z M140.14 16.12 l2.72 -2.08 l0 0.48 l-2.72 2.08 l0 -0.48 z M140.14 17.2 l2.72 -2 l0 -0.04 c0.04 0.16 0.04 0.32 0.08 0.44 l-2.8 2.08 l0 -0.48 z M140.33999999999997 18.2 l2.88 -2.16 c0.12 0.08 0.24 0.12 0.4 0.16 l-2.92 2.2 c-0.12 0 -0.28 -0.12 -0.36 -0.2 z M141.7 18.68 l-0.4 -0.12 l2.92 -2.16 c0.04 0 0.2 0.04 0.2 0.04 l0 0.28 l-2.72 2.04 l0 -0.08 z M141.7 19.4 l2.72 -2.04 l0 0.44 l-2.72 2.04 l0 -0.44 z M141.7 20.96 l0 -0.48 l2.72 -2.04 l0 0.48 z M141.7 21.6 l2.72 -2.04 l0 0.48 l-2.72 2.04 l0 -0.48 z M141.7 22.72 l2.72 -2.04 l0 0.48 l-2.72 2.04 l0 -0.48 z M141.7 24.32 l0 -0.48 l2.72 -2.04 l0 0.48 z M141.7 25.439999999999998 l0 -0.48 l2.72 -2.04 l0 0.48 z M141.7 26.08 l2.72 -2.08 l0 0.52 l-2.72 2.04 l0 -0.48 z M141.7 27.68 l0 -0.48 l2.72 -2.08 l0 0.52 z M141.7 28.8 l0 -0.48 l2.72 -2.08 l0 0.48 z M141.7 29.439999999999998 l2.72 -2.08 l0 0.48 l-2.72 2.08 l0 -0.48 z M141.7 30.52 l2.72 -2.04 l0 0.48 l-2.72 2.08 l0 -0.52 z M141.7 32.16 l0 -0.52 l2.72 -2.04 l0 0.48 z M141.7 32.76 l2.72 -2.04 l0 0.44 l-2.72 2.08 l0 -0.48 z M141.7 34.24 l0 -0.36 l1.2 -0.92 c0 0.2 0 0.48 -0.04 0.48 l-2.72 2.04 l0 -0.08 c0 -0.16 0 -0.36 0.12 -0.48 l0.56 -0.4 z M140.14 36.6 l0 -0.48 l2.72 -2.04 l0 0.48 z M140.14 37.24 l2.72 -2.04 l0 0.48 l-2.72 2.04 l0 -0.48 z M140.14 38.36 l2.72 -2.04 l0 0.48 l-2.72 2.04 l0 -0.48 z M140.17999999999998 39.44 l2.76 -2.08 l0.04 0 c0.08 0.12 0.16 0.2 0.28 0.28 l-2.88 2.16 c-0.04 -0.04 -0.2 -0.32 -0.2 -0.36 z M140.94 40 l3 -2.24 l0.64 0 l-2.96 2.24 l-0.68 0 z M143.1 40 l-0.64 0 l2.96 -2.24 l0.64 0 z M143.94 40 l2.96 -2.24 l0.68 0 l-3 2.24 l-0.64 0 z M145.42 40 l3 -2.24 l0.64 0 l-2.96 2.24 l-0.68 0 z M146.94 40 l2.96 -2.24 l0.64 0 l-2.96 2.24 l-0.64 0 z M149.05999999999997 40 l-0.64 0 l2.96 -2.24 l0.68 0 z M149.89999999999998 40 l3 -2.24 l0.56 0 l-2.96 2.24 l-0.6 0 z M151.33999999999997 40 l2.96 -2.24 l0.68 0 l-3 2.24 l-0.64 0 z M152.82 40 l3 -2.24 l0.64 0 l-2.96 2.24 l-0.68 0 z M154.98 40 l-0.64 0 l2.32 -1.76 l0 0.48 z M155.82 40 l0.84 -0.64 c0 0.32 -0.4 0.64 -0.72 0.64 l-0.12 0 z M174.36799999999997 31.28 l0 -15.52 l-0.96 -0.28 c-0.32 -0.12 -0.56 -0.44 -0.56 -0.76 l0 -3.96 c0 -0.28 0.28 -0.76 0.6 -0.76 l7.32 0 c0.36 0 0.64 0.48 0.64 0.8 l0 3.8 c0 0.92 -0.88 0.96 -1.56 1.16 l-0.04 0 l0 15.36 l4.88 0 l0.32 -1.32 c0.04 -0.24 0.32 -0.6 0.6 -0.6 l3.12 0 c0.32 0 0.64 0.44 0.64 0.76 l0 6.4 c0 0.28 -0.32 0.72 -0.64 0.72 l-15.24 0 c-0.32 0 -0.64 -0.48 -0.64 -0.8 l0 -3.92 c0 -0.32 0.24 -0.64 0.52 -0.72 z M169.44799999999998 13.879999999999999 l1.28 -0.96 l0.64 0 l-1.92 1.44 l0 -0.48 z M169.44799999999998 15.48 l0 -0.48 l2.68 -2.04 l0.04 0 l0 0.44 z M169.44799999999998 16.12 l2.72 -2.08 l0 0.48 l-2.72 2.08 l0 -0.48 z M169.44799999999998 17.2 l2.72 -2 l0 -0.04 c0.04 0.16 0.04 0.32 0.08 0.44 l-2.8 2.08 l0 -0.48 z M169.64799999999997 18.2 l2.88 -2.16 c0.12 0.08 0.24 0.12 0.4 0.16 l-2.92 2.2 c-0.12 0 -0.28 -0.12 -0.36 -0.2 z M171.00799999999998 18.68 l-0.4 -0.12 l2.92 -2.16 c0.04 0 0.2 0.04 0.2 0.04 l0 0.28 l-2.72 2.04 l0 -0.08 z M171.00799999999998 19.4 l2.72 -2.04 l0 0.44 l-2.72 2.04 l0 -0.44 z M171.00799999999998 20.96 l0 -0.48 l2.72 -2.04 l0 0.48 z M171.00799999999998 21.6 l2.72 -2.04 l0 0.48 l-2.72 2.04 l0 -0.48 z M171.00799999999998 22.72 l2.72 -2.04 l0 0.48 l-2.72 2.04 l0 -0.48 z M171.00799999999998 24.32 l0 -0.48 l2.72 -2.04 l0 0.48 z M171.00799999999998 25.439999999999998 l0 -0.48 l2.72 -2.04 l0 0.48 z M171.00799999999998 26.08 l2.72 -2.08 l0 0.52 l-2.72 2.04 l0 -0.48 z M171.00799999999998 27.68 l0 -0.48 l2.72 -2.08 l0 0.52 z M171.00799999999998 28.8 l0 -0.48 l2.72 -2.08 l0 0.48 z M171.00799999999998 29.439999999999998 l2.72 -2.08 l0 0.48 l-2.72 2.08 l0 -0.48 z M171.00799999999998 30.52 l2.72 -2.04 l0 0.48 l-2.72 2.08 l0 -0.52 z M171.00799999999998 32.16 l0 -0.52 l2.72 -2.04 l0 0.48 z M171.00799999999998 32.76 l2.72 -2.04 l0 0.44 l-2.72 2.08 l0 -0.48 z M171.00799999999998 34.24 l0 -0.36 l1.2 -0.92 c0 0.2 0 0.48 -0.04 0.48 l-2.72 2.04 l0 -0.08 c0 -0.16 0 -0.36 0.12 -0.48 l0.56 -0.4 z M169.44799999999998 36.6 l0 -0.48 l2.72 -2.04 l0 0.48 z M169.44799999999998 37.24 l2.72 -2.04 l0 0.48 l-2.72 2.04 l0 -0.48 z M169.44799999999998 38.36 l2.72 -2.04 l0 0.48 l-2.72 2.04 l0 -0.48 z M169.48799999999997 39.44 l2.76 -2.08 l0.04 0 c0.08 0.12 0.16 0.2 0.28 0.28 l-2.88 2.16 c-0.04 -0.04 -0.2 -0.32 -0.2 -0.36 z M170.248 40 l3 -2.24 l0.64 0 l-2.96 2.24 l-0.68 0 z M172.408 40 l-0.64 0 l2.96 -2.24 l0.64 0 z M173.248 40 l2.96 -2.24 l0.68 0 l-3 2.24 l-0.64 0 z M174.72799999999998 40 l3 -2.24 l0.64 0 l-2.96 2.24 l-0.68 0 z M176.248 40 l2.96 -2.24 l0.64 0 l-2.96 2.24 l-0.64 0 z M178.36799999999997 40 l-0.64 0 l2.96 -2.24 l0.68 0 z M179.20799999999997 40 l3 -2.24 l0.56 0 l-2.96 2.24 l-0.6 0 z M180.64799999999997 40 l2.96 -2.24 l0.68 0 l-3 2.24 l-0.64 0 z M182.128 40 l3 -2.24 l0.64 0 l-2.96 2.24 l-0.68 0 z M184.28799999999998 40 l-0.64 0 l2.32 -1.76 l0 0.48 z M185.128 40 l0.84 -0.64 c0 0.32 -0.4 0.64 -0.72 0.64 l-0.12 0 z M203.67599999999996 31.28 l0 -15.52 l-1.04 -0.36 c-0.28 -0.08 -0.48 -0.44 -0.48 -0.72 l0 -3.88 c0 -0.28 0.28 -0.8 0.6 -0.8 l15.88 0 c0.32 0 0.6 0.44 0.6 0.72 l0 6.4 c0 0.28 -0.32 0.72 -0.6 0.72 l-3.24 0 c-0.28 0 -0.52 -0.4 -0.56 -0.64 l-0.28 -1.24 l-5.44 0 l0 0.68 l0.6 0 l-0.6 0.44 l0 0.64 l1.44 -1.08 l0.64 0 l-2.08 1.56 l0 0.64 l2.92 -2.2 l0.68 0 l-3 2.24 l-0.6 0 l0 1.56 l2.44 0 l-0.04 -0.04 l0.04 -0.04 l2.8 -2.08 c0.08 0.08 0.2 0.16 0.32 0.24 l-2.56 1.92 l0.84 0 l2.52 -1.88 l0.36 0 l0 0.2 l-2.24 1.68 l0.44 0 c0.08 0 0.16 0.08 0.28 0.08 l1.52 -1.12 l0 0.48 l-1.2 0.92 l-0.12 0 c0.04 0.08 0.12 0.24 0.12 0.4 l0 4.28 c0 0.4 -0.32 0.76 -0.72 0.76 l-4.8 0 l0 0.68 l0.24 0 c-0.04 0.04 -0.2 0.16 -0.24 0.2 l0 0.6 l1.08 -0.8 l0.64 0 l-1.72 1.32 l0 0.6 l2.12 -1.56 l0 0.48 l-1.88 1.4 l-0.24 0 l0 1.96 l5.52 0 l0.32 -1.32 c0.04 -0.24 0.28 -0.6 0.6 -0.6 l3.12 0 c0.32 0 0.64 0.44 0.64 0.76 l0 6.4 c0 0.28 -0.32 0.72 -0.64 0.72 l-15.88 0 c-0.32 0 -0.64 -0.48 -0.64 -0.8 l0 -4 c-0.2 0.08 -0.4 0.16 -0.52 0.36 c-0.04 0.04 -0.04 0.12 -0.08 0.16 l-1.24 0.92 l0 -0.48 l2.72 -2.04 l0 0.32 c0.08 -0.04 0.52 -0.16 0.64 -0.24 z M199.39599999999996 12.920000000000002 l0.44 0 l-1.08 0.8 c0 -0.32 0.28 -0.8 0.64 -0.8 z M198.75599999999997 14.84 l0 -0.48 l1.92 -1.44 l0.64 0 z M198.75599999999997 15.48 l2.72 -2.08 l0 0.52 l-2.72 2.04 l0 -0.48 z M198.75599999999997 17.08 l0 -0.48 l2.68 -2.04 l0.04 0 l0 0.44 z M198.75599999999997 17.68 l2.76 -2.04 c0.12 0.12 0.16 0.2 0.24 0.32 l-2.84 2.08 c-0.04 0 -0.16 -0.28 -0.16 -0.36 z M199.79599999999996 18.52 l-0.44 -0.16 l2.88 -2.16 l0.04 0 l0.44 0.12 z M210.55599999999998 18.88 l3 -2.24 l0.32 0 c0.04 0.04 0.04 0.12 0.04 0.2 l-2.72 2.04 l-0.04 0 l-0.6 0 z M200.31599999999997 19.28 l0 -0.52 l2.72 -2.04 l0 0.48 z M211.35599999999997 19.88 l-0.08 -0.44 l2.76 -2.04 l0.04 -0.04 l0.08 0.44 z M200.31599999999997 19.88 l2.72 -2.04 l0 0.44 l-2.72 2.04 l0 -0.44 z M200.31599999999997 20.96 l2.72 -2.04 l0 0.48 l-2.72 2.04 l0 -0.48 z M200.31599999999997 22.56 l0 -0.48 l2.72 -2.04 l0 0.48 z M200.31599999999997 23.68 l0 -0.48 l2.72 -2.04 l0 0.48 z M200.31599999999997 24.32 l2.72 -2.04 l0 0.48 l-2.72 2.04 l0 -0.48 z M200.31599999999997 25.92 l0 -0.48 l2.72 -2.04 l0 0.48 z M200.31599999999997 27.04 l0 -0.48 l2.72 -2.04 l0 0.48 z M200.31599999999997 27.68 l2.72 -2.08 l0 0.52 l-2.72 2.04 l0 -0.48 z M200.31599999999997 28.8 l2.72 -2.08 l0 0.52 l-2.72 2.04 l0 -0.48 z M200.31599999999997 30.4 l0 -0.48 l2.72 -2.08 l0 0.52 z M210.63599999999997 29.16 l-0.44 0 l1.04 -0.76 c0 0.32 -0.24 0.76 -0.6 0.76 z M200.31599999999997 31.04 l2.72 -2.08 l0 0.48 l-2.72 2.08 l0 -0.48 z M200.31599999999997 32.12 l2.72 -2.04 l0 0.48 l-2.72 2.08 l0 -0.52 z M198.75599999999997 35.480000000000004 l2.72 -2.04 l0 0.48 l-2.72 2.08 l0 -0.52 z M198.75599999999997 36.6 l2.72 -2.04 l0 0.48 l-2.72 2.08 l0 -0.52 z M198.75599999999997 38.24 l0 -0.52 l2.72 -2.04 l0 0.48 z M198.75599999999997 38.84 l2.72 -2.04 c0.04 0.16 0.08 0.28 0.08 0.44 l-0.04 0.04 l-2.72 2 l-0.04 0.04 l0 -0.48 z M198.99599999999998 39.8 l2.84 -2.12 c0.2 0.08 0.32 0.08 0.52 0.08 l-2.96 2.24 c-0.16 0 -0.32 -0.12 -0.4 -0.2 z M200.23599999999996 40 l2.96 -2.24 l0.64 0 l-2.96 2.24 l-0.64 0 z M202.35599999999997 40 l-0.64 0 l2.96 -2.24 l0.64 0 z M203.83599999999998 40 l-0.64 0 l2.92 -2.2 c0.04 -0.04 0.08 -0.04 0.08 -0.04 l0.64 0 z M204.67599999999996 40 l3 -2.24 l0.64 0 l-2.92 2.2 c-0.04 0.04 -0.04 0.04 -0.08 0.04 l-0.64 0 z M206.19599999999997 40 l2.96 -2.24 l0.64 0 l-2.96 2.24 l-0.64 0 z M208.31599999999997 40 l-0.64 0 l2.96 -2.24 l0.68 0 z M209.15599999999998 40 l3 -2.24 l0.56 0 l-2.96 2.24 l-0.6 0 z M211.23599999999996 40 l-0.64 0 l2.96 -2.24 l0.68 0 z M212.07599999999996 40 l3 -2.24 l0.64 0 l-2.96 2.24 l-0.68 0 z M213.59599999999998 40 l2.32 -1.76 l0 0.48 l-1.68 1.28 l-0.64 0 z M215.07599999999996 40 l0.84 -0.6 c0 0.32 -0.4 0.6 -0.72 0.6 l-0.12 0 z M238.10399999999998 23.12 l-3.72 -7.24 l-1.28 -0.44 c-0.32 -0.08 -0.56 -0.48 -0.56 -0.8 l0 -3.88 c0 -0.28 0.32 -0.76 0.64 -0.76 l7.76 0 c0.36 0 0.6 0.48 0.6 0.8 l0 2.6 l0.32 -0.24 l0 0.52 c-0.04 0 -0.24 0.16 -0.32 0.24 l0 0.6 c0.12 -0.08 0.24 -0.16 0.32 -0.24 l0 0.48 l-0.44 0.36 c-0.08 0.04 -0.08 0.16 -0.2 0.2 c-0.16 0.08 -0.24 0.12 -0.36 0.2 l0 -0.04 l-0.44 0.16 c0.04 0.16 0.24 0.56 0.28 0.64 l1.2 -0.88 c0 0.12 0.08 0.28 0.08 0.44 l-1.12 0.8 l0.24 0.48 l1.32 -1 l0.04 0 l0.4 0.16 l-1.6 1.2 l0.04 0.08 c0.04 0.04 0.16 0.28 0.2 0.36 l1.28 -0.96 l-0.36 0.76 l-0.76 0.56 l0.2 0.48 c0.04 0 0.04 -0.04 0.08 -0.04 c0 0.04 -0.04 0.04 -0.04 0.08 s0.04 0.12 0.04 0.12 c0.04 0.08 0.12 0.2 0.12 0.2 l1.64 -3.44 c-0.6 -0.2 -1.16 -0.32 -1.16 -1.04 l0 -3.84 c0 -0.32 0.28 -0.8 0.64 -0.8 l7.76 0 c0.32 0 0.6 0.48 0.6 0.76 l0 3.92 c0 0.32 -0.2 0.68 -0.52 0.76 l-1.32 0.44 l-3.64 7.24 l4.08 8.08 l0.04 0 l1.24 0.4 c0.28 0.08 0.52 0.44 0.52 0.72 l0 4 c0 0.36 -0.32 0.72 -0.68 0.72 c-1.04 0 -5.72 0.04 -6.72 0.04 l-0.48 0 l-0.48 0 c-0.36 -0.04 -0.64 -0.44 -0.64 -0.8 l0 -3.92 c0 -0.64 0.64 -0.8 1.12 -0.96 l-2 -4.12 l-0.48 0.96 l0 0.08 c0 0.04 -0.08 0.12 -0.08 0.12 l-0.48 0.96 l0.8 -0.6 l0.16 0.36 l0 0 l-1.36 1.04 l-0.48 0.96 l2.08 -1.52 l0.16 0.32 l0 0.04 l-2.04 1.52 c0.08 0.04 0.4 0.16 0.56 0.2 l1.72 -1.28 l0.16 0.36 l0 0 l-1.64 1.24 c-0.04 0 -0.04 0 -0.04 0.04 s0.04 0.16 0.08 0.24 l0 0.32 l1.84 -1.4 l0.16 0.36 l0 0.04 l-2 1.48 l0 0.64 l1.12 -0.84 c0 0.16 -0.04 0.36 -0.04 0.48 l-1.08 0.84 l0 0.6 l1.08 -0.8 l0 0.48 l-1.08 0.84 l0 0.6 l1.08 -0.8 l0 0.44 l-1.08 0.84 c-0.08 0.04 -0.08 0.16 -0.12 0.2 c-0.08 0.2 -0.32 0.4 -0.56 0.44 l-0.48 0 l-0.44 0 c-1.04 0 -5.76 -0.04 -6.76 -0.04 c-0.4 0 -0.72 -0.36 -0.72 -0.76 l0 -3.92 c0 -0.12 0.08 -0.2 0.08 -0.28 l-0.96 0.68 l0.4 -0.8 l2.6 -1.92 l-0.4 0.8 l-0.92 0.68 c0.04 0 0.08 -0.04 0.12 -0.04 c0.24 -0.08 0.88 -0.28 0.88 -0.28 z M229.14399999999998 13.84 l1.24 -0.92 l0.64 0 l-1.88 1.4 l0 -0.48 z M229.14399999999998 15.440000000000001 l0 -0.52 l2.68 -2 l0.08 0 l0 0.44 z M229.14399999999998 16.04 l2.76 -2.04 l0 0.48 l-2.76 2.04 l0 -0.48 z M229.14399999999998 17.6 l0 -0.44 l2.76 -2.04 c0 0.16 0.04 0.32 0.04 0.44 l-2.76 2.08 z M229.34399999999997 18.12 l0.04 0 l2.8 -2.12 c0.12 0.08 0.24 0.12 0.36 0.16 l0 0.04 l-2.88 2.16 c-0.12 0 -0.28 -0.2 -0.32 -0.24 z M230.664 18.68 l-0.44 -0.12 l2.92 -2.2 l0.44 0.16 z M231.10399999999998 19 l2.76 -2.08 l0.04 0 l0.2 0.36 l-2.8 2.08 l-0.04 0 l-0.16 -0.32 l0 -0.04 z M231.664 20.16 l-0.16 -0.32 l2.76 -2.08 l0.04 -0.04 l0.2 0.36 l-2.8 2.08 l-0.04 0 z M231.944 20.6 l2.76 -2.04 l0.04 -0.04 l0 0.04 l0.16 0.32 l-2.76 2.08 l-0.04 0 l-0.16 -0.32 l0 -0.04 z M232.504 21.76 l-0.16 -0.32 l2.76 -2.08 l0.04 0 l0.16 0.32 l0 0.04 l-2.76 2.04 l-0.04 0.04 l0 -0.04 z M232.784 22.2 l2.76 -2.04 l0.04 0 l0.16 0.32 l-2.8 2.12 l-0.2 -0.36 z M233.34399999999997 23.4 l-0.2 -0.36 l2.8 -2.08 l0.04 0 l0.16 0.32 l0 0.04 l-2.76 2.08 l-0.04 0 z M233.58399999999997 23.84 l0.04 0 l2.76 -2.08 c0.04 0.04 0.08 0.12 0.08 0.12 c0.04 0.08 0.12 0.2 0.12 0.2 l-2.8 2.12 c-0.08 -0.12 -0.2 -0.32 -0.2 -0.36 z M233.98399999999998 24.68 l2.84 -2.12 l0.16 0.32 l0 0.04 l-2.8 2.08 l-0.04 -0.08 c-0.04 -0.08 -0.16 -0.24 -0.16 -0.24 z M234.42399999999998 25.48 l2.8 -2.12 l0.04 0.08 c0.04 0.08 0.12 0.28 0.12 0.28 l-2.8 2.08 s-0.04 -0.08 -0.04 -0.12 c-0.04 -0.04 -0.12 -0.2 -0.12 -0.2 z M234.02399999999997 27.32 l0.44 -0.76 l2.56 -1.96 l-0.4 0.8 l-2.52 1.92 l-0.08 0 z M233.504 28.36 l2.6 -1.92 l-0.4 0.76 l-2.6 1.92 z M232.58399999999997 30.16 l2.56 -1.96 l-0.4 0.8 l-2.56 1.92 z M241.02399999999997 29.439999999999998 l0 -0.04 c-0.04 0 -0.04 0.04 0 0.04 z M230.504 34.12 l0.2 -0.32 l0.72 -0.56 l0 0.48 l-2.72 2.04 l0 -0.48 l1.32 -1 s0.04 0 0.08 -0.04 z M228.70399999999998 36.4 l2.72 -2.04 l0 0.48 l-2.72 2.04 l0 -0.48 z M228.70399999999998 37.52 l2.72 -2.04 l0 0.48 l-2.72 2.04 l0 -0.48 z M239.54399999999998 38.28 l2.72 -2.04 l0 0.48 l-2.72 2.04 l0 -0.48 z M228.70399999999998 39.12 l0 -0.48 l2.68 -2.04 c0.04 0.04 0.08 0.32 0.08 0.48 z M239.58399999999997 39.4 l0 -0.04 l2.76 -2.08 c0.08 0.12 0.16 0.24 0.24 0.32 l-2.84 2.12 c0 0.04 -0.16 -0.28 -0.16 -0.32 z M228.86399999999998 39.64 l2.8 -2.12 c0.08 0 0.2 0.12 0.28 0.16 c0.04 0 0.08 0 0.12 0.04 l-2.92 2.16 c-0.04 0.04 -0.32 -0.24 -0.28 -0.24 z M229.90399999999997 39.96 l3 -2.24 l0.64 0 l-3 2.24 l-0.16 0 l-0.08 0 l-0.4 0 z M232.02399999999997 39.96 l-0.64 0 l3 -2.24 l0.12 0 c0.2 0 0.32 0 0.52 0.04 z M244.74399999999997 39.96 l2.96 -2.2 c0 -0.04 0.28 -0.04 0.36 -0.04 l0.16 0 l0.12 0 l-2.96 2.24 l-0.64 0 z M233.504 39.96 l-0.64 0 l3 -2.2 l0.64 0 z M243.86399999999998 39.96 l-0.64 0 l3 -2.2 l0.64 0 z M234.34399999999997 39.96 l3 -2.2 l0.44 0 l0 0.16 l-2.8 2.08 l-0.08 0 c-0.2 0 -0.36 0 -0.56 -0.04 z M240.90399999999997 40 l-0.68 0 l3 -2.24 l0.44 0 l0.2 0 z M241.74399999999997 40 l2.96 -2.24 l0.68 0 l-3 2.24 l-0.64 0 z M246.224 39.96 l2.32 -1.72 l0 0.48 l-1.68 1.24 l-0.64 0 z M236.42399999999998 40 l-0.6 0 l1.96 -1.48 l0 0.44 z M247.74399999999997 39.96 l0.76 -0.6 c0 0.32 -0.4 0.6 -0.68 0.6 l-0.08 0 z">
            </path>
          </g>
          <g id="SvgjsG1064" featurekey="nameFeature-1" transform="matrix(1.8880216957433587,0,0,1.8880216957433587,155.22395705865273,44.119784843124215)" fill="#000000">
            <path d="M11.36 10.120000000000001 l2.24 -0.12 l1.76 0 l0.96 0.04 l1.52 0.16 c4.08 0.4 4.96 4.16 4.96 7.6 c0 0.44 0.04 1.52 -0.64 1.52 l-4.04 0 c-0.6 0 -0.68 -0.72 -0.68 -1.2 l-0.04 -1.52 c-0.04 -0.88 -1.28 -0.92 -1.88 -0.92 l-2 0 c-0.48 0 -0.96 0.08 -1.44 0.2 c-1.04 0.16 -1.2 0.48 -1.24 1.48 l1.2 -0.92 c0.16 -0.08 0.52 -0.08 0.68 -0.08 l-1.92 1.44 l0 0.64 l2.76 -2.08 l0.64 0 l-2.96 2.24 l-0.44 0 c0 1.4 0.56 1.6 1.84 1.72 l1.28 0.12 l0.12 0 l0 -0.04 l2.72 -2.04 c0.04 0.12 0 0.28 0 0.32 l0 0.16 l-2.12 1.6 l-0.04 0.04 l0.72 0.08 l1.52 -1.16 c0.04 0.04 0.08 0.16 0.08 0.2 s0.08 0.12 0.08 0.16 l-1.08 0.84 l0.08 0 s0.44 0.04 0.68 0.04 l0.88 -0.64 l0.64 0 l-0.96 0.72 l0.64 0.08 l0.08 0 l1.08 -0.8 l0.4 0 l0 0.16 l-1 0.76 l0.6 0.12 c0.16 0 0.24 -0.2 0.4 -0.24 l0 0.36 l0.04 0 c3.56 1.16 3.72 4.2 3.72 7.4 c0 8.32 -3.4 8.52 -10.48 8.52 l-2.12 -0.16 c-3.4 -0.24 -5.12 -3.24 -5.2 -6.4 l-0.04 -1.88 l0 -0.2 c0 -0.56 0.04 -1.08 0.6 -1.28 l0.52 0 l1.6 -1.16 c0.12 0 0.28 0.08 0.4 0.16 l-1.36 1 l0.84 0 l1.12 -0.8 l0.48 0.12 l-0.96 0.68 l0.84 0 l0.8 -0.6 l0.52 0.08 l-0.68 0.52 c0.2 0.04 0.32 0.12 0.48 0.28 l0.92 -0.68 l0 -0.04 l0.56 0.08 l-1.32 1 c-0.04 0.08 -0.04 0.12 -0.04 0.12 c0 0.08 0.04 0.4 0.04 0.48 l2.08 -1.52 l0.04 -0.04 c0.16 0 0.36 0.04 0.52 0.04 l-2.64 2 l0 0.24 c0 1.48 0 2.04 1.72 2.2 c0.64 0.08 1.24 0.08 1.88 0.08 l0.2 0 l0 -0.36 l2.68 -2 c0.04 0.08 0.04 0.2 0.04 0.32 l0 0.12 l-2.56 1.92 l0.28 0 l0.28 0 l0.28 0 l1.68 -1.24 l0 0.08 c0 0.08 0 0.32 -0.04 0.36 l-0.88 0.72 c0.24 0 0.44 -0.12 0.64 -0.16 c1 -0.36 0.92 -1.4 0.96 -2.28 c0 -0.48 -0.04 -0.92 -0.08 -1.4 c-0.16 -0.96 -0.96 -1.16 -1.8 -1.2 l-2.08 -0.08 l-2.16 -0.16 l-1.64 -0.28 c-3.04 -0.44 -4.48 -3.4 -4.6 -6.2 l-0.04 -1.56 c0 -4.12 1.2 -7.6 5.88 -7.88 z M5.6 14.04 l-2.52 1.88 c0 -0.12 0.44 -0.72 0.6 -0.92 l1.84 -1.4 c0.04 -0.04 0.36 -0.16 0.4 -0.16 z M2.64 16.88 l2.64 -1.96 l0 0.04 s-0.12 0.36 -0.16 0.56 l-2.64 1.96 l0 -0.12 c0.04 -0.08 0.12 -0.4 0.16 -0.48 z M2.32 18.2 l2.68 -2 l-0.08 0.56 l-2.68 2 l0.08 -0.52 l0 -0.04 z M12.08 18.56 l2.92 -2.16 l0 -0.04 c0.24 0 0.36 0 0.6 0.08 l-2.92 2.16 l-0.16 0 s-0.36 0 -0.44 -0.04 z M13.36 18.72 l2.84 -2.12 c0.12 0 0.28 0.12 0.36 0.2 l-2.76 2.08 c-0.2 -0.08 -0.32 -0.12 -0.44 -0.16 z M14 19.32 l2.76 -2.04 l0 0.4 l0 0.08 l-2.72 2 c0 -0.12 -0.04 -0.28 -0.04 -0.44 z M2.16 19.84 l0 -0.4 l2.68 -2.04 l0 0.12 c0 0.12 0.08 0.32 -0.04 0.4 l-2.64 2 l0 -0.08 z M2.12 20.56 l2.68 -2 l0.04 0 l0 0.44 l-2.68 2 l-0.04 0.04 l0 -0.48 z M2.16 21.64 l2.68 -2 c0.04 0.12 0.04 0.24 0.04 0.36 l0 0.08 l-2.68 2 c-0.04 -0.04 -0.08 -0.32 -0.08 -0.4 c0 -0.04 0 -0.04 0.04 -0.04 z M2.24 22.68 l2.68 -2 c0.04 0.16 0.08 0.44 0.08 0.44 l-2.76 2.04 c0 -0.08 -0.04 -0.36 -0.04 -0.44 z M2.36 23.68 l2.72 -2 l0.04 0.32 l0.04 0.04 s-0.04 0 -0.04 0.04 l-2.72 2 c0 -0.08 -0.04 -0.28 -0.04 -0.4 z M2.52 24.6 l0.04 0 l2.72 -2.04 l0.12 0.4 l-2.76 2.04 c0 -0.04 -0.04 -0.12 -0.04 -0.16 c-0.04 -0.04 -0.08 -0.24 -0.08 -0.24 z M2.84 25.48 l2.72 -2.04 l0.04 0 l0.16 0.32 l-2.76 2.08 c-0.04 -0.08 -0.12 -0.2 -0.16 -0.36 z M3.24 26.28 l2.76 -2.04 l0.04 -0.04 l0 0.04 l0.2 0.28 l-2.8 2.08 s-0.12 -0.2 -0.2 -0.32 z M3.76 27 l2.8 -2.08 l0.28 0.28 l-2.84 2.08 s-0.12 -0.16 -0.24 -0.28 z M4.44 27.6 l2.8 -2.08 l0.36 0.2 l-2.8 2.12 c-0.12 -0.04 -0.32 -0.16 -0.36 -0.24 z M11.28 29.119999999999997 l2.88 -2.2 l0.04 0 l0.08 0 l0.24 0 l0.28 0 l-2.92 2.2 c-0.04 0.04 0 0 -0.04 0 l-0.56 0 z M13.16 29.240000000000002 l-0.52 -0.08 l2.92 -2.16 c0.12 0 0.36 0.04 0.48 0.08 z M13.76 29.4 l2.84 -2.12 c0.16 0 0.32 0.24 0.32 0.24 l-2.76 2.08 c-0.12 -0.08 -0.36 -0.16 -0.4 -0.2 z M14.36 30.04 l2.72 -2.04 l0.04 0 c0.08 0.08 0.04 0.28 0.04 0.4 l0 0.04 l-2.72 2.04 c0 -0.16 -0.04 -0.28 -0.08 -0.44 z M2.12 30.439999999999998 l0.52 -0.4 l0.64 0 l-1.28 0.96 c0 -0.12 0.04 -0.52 0.12 -0.56 z M2 31.64 l2.12 -1.6 l0.6 0 l0 0.04 l-2.72 2.04 l0 -0.48 z M2 32.72 l2.72 -2.04 c0 0.08 0.04 0.32 0.04 0.48 l-2.72 2.04 c-0.04 -0.16 -0.04 -0.28 -0.04 -0.48 z M2.08 33.76 l2.72 -2 s0.04 0.28 0.04 0.44 l-2.72 2 s-0.04 -0.24 -0.04 -0.44 z M2.2 34.76 l2.72 -2.04 c0.04 0.16 0.12 0.4 0.12 0.44 l-2.76 2.04 l-0.08 -0.4 l0 -0.04 z M2.52 36.12 l-0.12 -0.4 l2.72 -2.04 l0.04 0 l0.12 0.36 z M2.88 36.92 l-0.16 -0.32 l2.76 -2.08 c0.04 0 0.04 0 0.04 0.04 l0.16 0.28 z M3.16 37.32 l2.76 -2.04 l0 0 l0.2 0.28 l0 0.04 l-2.76 2.08 l-0.2 -0.32 l0 -0.04 z M3.64 38.08 l2.8 -2.08 l0.04 -0.04 l0.28 0.28 l-2.84 2.12 l-0.16 -0.16 c0 -0.04 -0.08 -0.12 -0.12 -0.12 z M4.32 38.68 l2.8 -2.08 l0.04 -0.04 l0.32 0.24 l-2.84 2.12 s-0.12 -0.12 -0.2 -0.16 c0 0 -0.12 -0.04 -0.12 -0.08 z M5.16 39.16 l2.8 -2.12 l0.04 0 l0.4 0.16 l-2.84 2.12 l-0.04 0.04 c-0.08 0 -0.32 -0.12 -0.36 -0.2 z M14.64 39.8 l-0.04 0 l3 -2.24 c0.04 -0.04 0.44 -0.12 0.52 -0.12 c0.04 -0.04 0.36 -0.12 0.44 -0.12 l-3.12 2.32 c-0.04 0.04 -0.72 0.16 -0.8 0.16 z M6.12 39.56 l2.88 -2.16 l0.48 0.12 l-2.92 2.16 c-0.12 0 -0.32 -0.04 -0.44 -0.12 z M7.28 39.8 l-0.04 0 l2.88 -2.16 c0.04 -0.04 0.04 0 0.08 0 c0.16 0 0.36 0 0.52 0.04 l-2.92 2.16 c-0.2 0 -0.48 -0.04 -0.52 -0.04 z M12.92 39.96 l2.96 -2.2 c0.08 -0.08 0.6 -0.08 0.72 -0.08 l-2.96 2.2 c0 0.04 -0.4 0.04 -0.72 0.08 z M8.6 39.92 l-0.04 0 l2.92 -2.2 l0.08 0 c0.16 0 0.36 0 0.52 0.04 l-2.92 2.2 l-0.08 0 c-0.08 0 -0.44 -0.04 -0.48 -0.04 z M11.4 40 l2.92 -2.2 l0.04 0 c0 -0.04 0.36 -0.04 0.64 -0.04 l-2.96 2.24 l-0.64 0 z M9.96 39.96 l2.92 -2.16 l0.64 0 l-2.96 2.2 l-0.16 0 c-0.16 0 -0.28 0 -0.44 -0.04 z M39.748000000000005 17.84 l-3.16 0 c-0.28 0 -0.6 -0.48 -0.6 -0.76 l0 -6.28 c0 -0.28 0.32 -0.8 0.64 -0.8 l16.16 0 c0.32 0 0.64 0.48 0.64 0.76 l0 6.36 c0 0.28 -0.28 0.72 -0.6 0.72 l-3.2 0 c-0.32 0 -0.6 -0.4 -0.64 -0.68 l-0.24 -1.2 l-1.32 0 l0 0.68 l0.24 0 c-0.04 0.04 -0.16 0.12 -0.24 0.2 l0 0.6 c0.12 -0.08 0.6 -0.44 0.72 -0.48 l0.08 0.32 c0 0.08 0 0.08 -0.04 0.08 l-0.76 0.56 l0 0.64 l0.92 -0.68 c0 0.08 0.16 0.32 0.16 0.36 l-0.04 0.04 l-1.04 0.76 l0 0.64 l1.52 -1.12 l0.64 0 l-2.16 1.6 l0 11.12 l1 0.36 c0.28 0.08 0.52 0.4 0.52 0.72 l0 3.96 c0 0.32 -0.28 0.76 -0.64 0.76 l-7.2 0 c-0.4 0 -0.64 -0.44 -0.64 -0.8 l0 -3.88 c0 -0.12 0.08 -0.28 0.08 -0.4 l-1.92 1.44 l-0.04 0 l0 -0.44 l2.76 -2.04 l0 0.44 c0 0.08 -0.2 0.12 -0.24 0.2 l0.88 -0.32 l0 -15.32 l-1.32 0 l-0.24 1.16 l0.04 0 c0.08 -0.08 0.52 -0.4 0.64 -0.48 l0.24 0 l0 0.32 l-1.76 1.28 c0.08 -0.12 0.16 -0.24 0.16 -0.4 z M33.308 12.920000000000002 l-0.6 0.44 c0 -0.2 0.4 -0.44 0.6 -0.44 z M32.588 14.079999999999998 l1.56 -1.16 l0.64 0 l-2.2 1.64 l0 -0.48 z M32.588 15.2 l2.72 -2.04 l0 0.48 l-2.72 2.04 l0 -0.48 z M32.588 16.32 l2.72 -2.04 l0 0.48 l-2.72 2.04 l0 -0.48 z M32.588 17.92 l0 -0.48 l2.72 -2.04 l0 0.48 z M32.588 18.56 l2.72 -2.04 l0 0.48 l-2.72 2.04 l0 -0.48 z M40.428 17.16 c0.04 0 0.04 -0.04 0 -0.04 l0 0.04 z M38.588 19.64 l2.76 -2.04 l0 0.44 l-2.72 2 s0 0.04 -0.04 0.04 l0 -0.44 z M32.588 19.68 l2.72 -2.04 c0.04 0.12 0.08 0.28 0.08 0.4 l-2.76 2.08 c-0.04 0 -0.04 -0.04 -0.04 -0.08 l0 -0.36 z M32.868 20.6 l0 -0.04 l2.84 -2.08 l0 -0.04 c0.04 0 0.16 0.08 0.2 0.08 c0.08 0.04 0.24 0.04 0.32 0.04 l-3 2.24 c-0.12 0 -0.28 -0.12 -0.36 -0.2 z M38.588 18.52 l0.56 0 l0.12 0 l-0.68 0.48 l0 -0.12 l-0.48 0 z M34.748000000000005 20.8 l-0.64 0 l2.96 -2.24 l0.64 0 z M38.588 21.2 l0 -0.48 l2.76 -2.08 l0 0.52 z M48.108000000000004 20.8 l-0.64 0 l2.56 -1.96 l0 0.48 z M36.228 20.8 l-0.64 0 l1.52 -1.16 l0 0.04 c0 0.08 -0.08 0.52 -0.12 0.52 z M38.588 21.84 l2.76 -2.08 l0 0.52 l-2.76 2.04 l0 -0.48 z M49.388000000000005 20.8 l-0.44 0 l1.08 -0.84 c0 0.32 -0.28 0.84 -0.64 0.84 z M38.588 22.96 l2.76 -2.08 l0 0.52 l-2.72 2 s0 0.04 -0.04 0.04 l0 -0.48 z M38.588 24.560000000000002 l0 -0.48 l2.76 -2.08 l0 0.48 z M38.588 25.68 l0 -0.52 l2.76 -2.04 l0 0.48 z M38.588 26.28 l2.76 -2.04 l0 0.48 l-2.72 2.04 l-0.04 0 l0 -0.48 z M38.588 27.92 l0 -0.52 l2.76 -2.04 l0 0.48 z M38.588 29 l0 -0.48 l2.76 -2.04 l0 0.48 z M38.588 29.64 l2.76 -2.04 l0 0.48 l-2.76 2.04 l0 -0.48 z M38.588 30.759999999999998 l2.76 -2.04 l0 0.48 l-2.76 2.04 l0 -0.48 z M38.588 32.36 l0 -0.48 l2.76 -2.04 l0 0.48 z M41.068 31.6 l0 0 z M38.588 34.24 l0 -0.16 l1.2 -0.88 l0 0.48 l-2.72 2.04 l0 -0.44 l0 -0.04 l1.2 -0.88 z M37.068 36.84 l0 -0.48 l2.72 -2.04 l0 0.48 z M37.068 37.48 l2.72 -2.04 l0 0.48 l-2.72 2.04 l0 -0.48 z M37.068 38.6 l2.68 -2.04 l0.04 0 l0 0.48 l-2.72 2.04 l0 -0.48 z M37.148 39.64 l2.8 -2.12 l0.04 0 c0.12 0.12 0.2 0.16 0.36 0.2 l-2.92 2.2 c-0.04 0 -0.28 -0.24 -0.28 -0.28 z M38.188 40 l2.96 -2.24 l0.64 0 l-2.96 2.24 l-0.64 0 z M39.668 40 l2.96 -2.24 l0.68 0 l-3 2.24 l-0.64 0 z M41.788 40 l-0.64 0 l3 -2.24 l0.64 0 z M43.308 40 l-0.64 0 l2.88 -2.2 l0 0.48 z M44.788 40 l-0.64 0 l1.44 -1.08 c0 0.04 -0.04 0.48 -0.08 0.52 z M76.57600000000001 10 l1.6 0.12 c4.52 0.36 6.36 3.36 6.56 7.52 l0.08 1.48 l0 8.44 c0 0.88 -0.04 1.84 -0.2 2.68 l-0.2 1.16 c-0.84 4.88 -4.76 5.72 -8.92 5.72 c-6.24 0 -9 -1.84 -9.24 -8.12 l-0.08 -1.6 l0 -8.08 c0 -0.72 0.04 -1.48 0.12 -2.2 l0.2 -1.32 c0.76 -5.72 5.44 -5.8 10.08 -5.8 z M64.656 15.04 l1.76 -1.32 c0.12 -0.08 0.28 -0.16 0.44 -0.16 l-0.28 0.52 l-2.56 1.92 c0.16 -0.36 0.4 -0.64 0.64 -0.96 z M63.576 16.92 l2.64 -1.96 l-0.16 0.6 c-0.04 0 -0.04 0.04 -0.04 0.04 l-2.64 1.96 l0.04 -0.08 c0 -0.08 0.12 -0.44 0.16 -0.56 z M71.77600000000001 17.36 l0.92 -0.68 c0.04 -0.04 0.68 -0.12 0.76 -0.12 l0.04 0 l-1.84 1.36 c0 0.04 -0.04 0.04 -0.04 0.08 l-0.04 0.64 l2.76 -2.08 l0.64 0 l-2.92 2.2 l-0.48 0 l-0.04 0.92 l0 7.48 c0 0.12 0 1 0.04 1.24 c0.12 2.6 0.92 2.76 3.2 2.84 c0.16 0 2 0 2.08 -0.08 l1.76 -1.32 c0.08 -0.04 0.04 0 0.04 0 c0 0.04 -0.08 0.52 -0.16 0.56 l-0.88 0.68 c1.6 0 1.88 -2.6 1.88 -3.84 l0 -8 l-0.08 -1.16 c-0.16 -1.92 -1.32 -2.2 -3.08 -2.2 l-0.88 0 l-0.84 0 c-0.96 0 -2.28 0.12 -2.72 1.12 c-0.08 0.12 -0.12 0.24 -0.12 0.36 z M63.216 18.32 l2.64 -1.96 l-0.08 0.52 l-2.64 1.96 l-0.04 0.04 c0 -0.08 0.08 -0.44 0.12 -0.56 z M72.896 18.76 l2.88 -2.2 c0.24 0 0.48 0 0.64 0.04 l-2.92 2.16 l-0.6 0 z M74.696 19 l-0.48 -0.16 l2.84 -2.12 c0.04 -0.04 0.04 -0.04 0.08 -0.04 c0.12 0 0.32 0.08 0.4 0.16 z M75.21600000000001 19.2 l2.84 -2.12 s0.08 0.04 0.08 0.08 c0.04 0.04 0.12 0.12 0.16 0.24 l-2.76 2.04 c-0.12 -0.08 -0.2 -0.16 -0.32 -0.24 z M71.736 17.4 c0.04 0 0.04 -0.04 0 -0.04 l0 0.04 z M62.936 20.12 l0.04 -0.52 l2.68 -2.04 c0 0.16 0 0.36 -0.04 0.52 z M75.77600000000001 19.88 l2.76 -2.04 l0 -0.04 c0.04 0.04 0.08 0.16 0.08 0.2 c0.04 0.04 0.08 0.2 0.04 0.2 l-2.72 2.04 c-0.04 -0.12 -0.16 -0.36 -0.16 -0.36 z M62.856 21.16 c0 -0.16 0.04 -0.4 0.04 -0.4 l2.68 -2 l0 0.08 c0 0.12 0 0.2 -0.04 0.4 l-2.68 2 l0 -0.08 z M76.056 20.8 l2.68 -2.04 c0.04 0.08 0.04 0.36 0.04 0.44 l-2.72 2.04 l0 -0.44 z M76.136 21.84 l2.68 -2 l0 -0.04 c0.04 0.12 0.04 0.24 0.04 0.36 l0 0.12 l-2.72 2 c-0.04 -0.12 0 -0.28 0 -0.4 l0 -0.04 z M62.816 22.16 c0 -0.08 -0.04 -0.28 0.04 -0.32 l2.68 -2 l0 0.48 l-2.72 2.04 l0 -0.2 z M76.136 23.4 l0 -0.48 l2.68 -2 l0.04 0 l0 0.44 z M62.816 23.44 l0 -0.48 l2.68 -1.96 s0 -0.04 0.04 -0.04 l0 0.48 z M76.136 24.04 l2.72 -2.04 l0 0.44 l-2.72 2.04 l0 -0.44 z M62.816 24.560000000000002 l0 -0.48 l2.72 -2.04 l0 0.48 z M76.136 25.560000000000002 l0 -0.48 l2.72 -2 l0 0.48 z M62.816 25.16 l2.72 -2 l0 0.48 l-2.72 2 l0 -0.48 z M76.136 26.68 l0 -0.48 l2.72 -2.04 l0 0.48 z M62.816 26.28 l2.72 -2.04 l0 0.48 l-2.72 2.04 l0 -0.48 z M76.136 27.28 l2.72 -2 l0 0.48 l-2.72 2.04 l0 -0.52 z M62.816 27.880000000000003 l0 -0.48 l2.72 -2.04 l0 0.48 z M76.136 28.880000000000003 l0 -0.48 l2.72 -2.04 l0 0.48 z M62.816 28.48 l2.72 -2 l0 0.48 l-2.72 2 l0 -0.48 z M76.136 29.96 l0 -0.44 l2.72 -2.04 l0 0.44 c0 0.04 -0.04 0.04 -0.04 0.08 l-2.64 1.96 l-0.04 0 z M62.816 29.6 l2.72 -2.04 l0 0.48 l-2.72 2.04 l0 -0.48 z M76.136 30.6 l2.68 -2 c0 0.24 -0.04 0.52 -0.04 0.52 l-2.68 2 l0 -0.04 c0 -0.12 -0.04 -0.4 0.04 -0.48 z M62.816 30.68 l2.72 -2 l0 -0.04 c0.04 0.16 0.04 0.32 0.04 0.48 l-2.72 2.04 c0 -0.16 -0.04 -0.24 -0.04 -0.4 l0 -0.08 z M62.896 31.759999999999998 l2.72 -2.04 s0 0.32 0.04 0.44 l-2.76 2.04 l0 -0.44 z M62.976 32.76 l2.68 -2 l0.04 0 c0 0.08 0.04 0.36 0.04 0.44 l-2.68 2 c-0.04 -0.04 -0.08 -0.32 -0.08 -0.44 z M63.096000000000004 33.76 l2.68 -2 l0.08 0 l0.04 0.36 l0 0.04 l-2.72 2.04 l-0.08 -0.36 l0 -0.08 z M63.296 34.72 l2.72 -2.04 l0.12 0.4 l-2.76 2.04 c-0.04 -0.12 -0.08 -0.4 -0.08 -0.4 z M63.536 35.64 l2.76 -2.08 c0.04 0.08 0.12 0.28 0.12 0.4 l-2.76 2.04 s0 -0.08 -0.04 -0.12 c0 -0.04 -0.08 -0.24 -0.08 -0.24 z M63.896 36.44 l2.76 -2.04 l0.2 0.36 l-2.8 2.08 c-0.04 -0.12 -0.16 -0.28 -0.16 -0.4 z M64.536 37.56 l-0.24 -0.28 l2.8 -2.12 c0.04 0.04 0.2 0.24 0.2 0.36 l-2.72 2.04 l-0.04 0 z M65.136 38.24 l-0.28 -0.28 l2.76 -2.08 c0.04 -0.04 0.08 -0.04 0.08 -0.04 l0.24 0.28 z M65.536 38.56 l2.8 -2.12 l0.04 0 l0.32 0.2 l-2.84 2.12 s-0.12 -0.08 -0.2 -0.12 z M66.336 39.04 l2.84 -2.12 l0.04 0 l0.4 0.16 l-2.84 2.12 l-0.04 0.04 c-0.04 0 -0.36 -0.16 -0.4 -0.2 z M75.696 39.68 l3.04 -2.24 c0.32 -0.08 0.68 -0.2 1 -0.28 l-3.08 2.32 c-0.08 0.04 -0.84 0.2 -0.92 0.2 l-0.04 0 z M67.336 39.44 l-0.04 0 l2.84 -2.12 c0.04 -0.04 0.08 -0.04 0.08 -0.04 l0.44 0.12 l-2.88 2.16 c-0.12 0 -0.4 -0.08 -0.44 -0.12 z M68.856 39.8 l-0.44 -0.08 l2.88 -2.16 c0.12 0 0.4 0.04 0.56 0.04 l-2.88 2.16 c-0.04 0.04 -0.04 0.04 -0.12 0.04 z M74.656 39.88 l-0.72 0.04 l2.96 -2.2 s0.04 -0.04 0.08 -0.04 l0.68 -0.08 z M69.656 39.88 l2.92 -2.2 c0.08 0 0.48 0.04 0.56 0.04 l-2.92 2.2 c-0.2 0 -0.56 -0.04 -0.56 -0.04 z M73.016 40 l-0.56 0 l2.92 -2.2 c0.04 -0.04 0.4 -0.04 0.48 -0.04 l0.12 0 z M71.016 39.96 l2.88 -2.16 l0.04 0 c0 -0.04 0.08 -0.04 0.16 -0.04 c0.16 0 0.28 0 0.44 0.04 l-2.92 2.2 l-0.16 0 c-0.16 0 -0.28 0 -0.44 -0.04 z M99.12400000000001 31.28 l0 -15.52 l-0.96 -0.28 c-0.32 -0.12 -0.56 -0.44 -0.56 -0.76 l0 -3.96 c0 -0.28 0.28 -0.76 0.6 -0.76 l12.12 0 c5 0 6.68 3.36 6.68 7.8 l0 1.64 l-0.08 2.16 c-0.08 1.32 -0.72 2.84 -1.68 3.76 c-0.04 0.04 -0.28 0.2 -0.28 0.24 c0.04 0.04 0.12 0.12 0.16 0.12 c1.2 0.96 1.64 2.76 1.68 4.24 l0.04 1.32 c0.16 0.08 0.8 0.28 0.96 0.32 c0.32 0.12 0.6 0.36 0.6 0.72 l0 4 c0 0.36 -0.32 0.76 -0.68 0.76 l-5.64 0 c-0.36 0 -0.64 -0.48 -0.64 -0.8 l0 -5.16 c0 -1.08 -0.48 -2.4 -1.72 -2.4 l-5.16 0 l0 0.68 l0.52 0 l-0.52 0.4 l0 0.64 l1.36 -1.04 l0.64 0 l-2 1.52 l0 0.36 l0.24 0.08 l0 0 l2.6 -1.96 l0.68 0 l-2.8 2.08 c0.52 0.2 0.88 0.4 0.88 1 l0 3.72 c0 0.36 -0.24 0.88 -0.68 0.88 l-7.24 0 c-0.36 0 -0.64 -0.44 -0.64 -0.76 l0 -3.96 c0 -0.32 0.24 -0.64 0.52 -0.72 z M94.20400000000001 14.16 l0 -0.48 l1.04 -0.76 l0.64 0 z M94.20400000000001 14.8 l2.52 -1.88 l0.2 0 l0 0.32 l-2.72 2.04 l0 -0.48 z M94.20400000000001 15.920000000000002 l2.72 -2.04 l0 0.48 l-2.72 2.04 l0 -0.48 z M94.20400000000001 17.52 l0 -0.48 l2.68 -2 c0.08 0.04 0.08 0.32 0.08 0.44 z M94.32400000000001 18.08 l2.84 -2.12 c0.12 0.08 0.2 0.12 0.36 0.2 l-2.88 2.16 c-0.08 0 -0.32 -0.24 -0.32 -0.24 z M104.56400000000001 15.96 l0 1.08 c0.08 -0.04 0.48 -0.36 0.56 -0.4 l0.64 0 l-1.2 0.88 l0 0.64 l2.04 -1.52 l0.64 0 l-2.68 2 l0 4.12 l4.32 0 l2.04 -1.52 c0 0.12 0 0.48 -0.08 0.56 l-1.24 0.92 c1.92 0 1.96 -1.44 2 -2.88 l0 -0.6 c0 -0.64 0 -1.32 -0.12 -1.96 c-0.16 -1.32 -1.04 -1.32 -2.2 -1.32 l-0.24 0 l-4.48 0 z M95.644 18.64 l-0.44 -0.12 l2.88 -2.16 l0.04 0 l0.36 0.08 l0 0.12 l-2.76 2.08 c-0.04 0 -0.04 0.04 -0.08 0.04 l0 -0.04 z M105.12400000000001 18.88 l3 -2.24 l0.6 0 l-2.96 2.24 l-0.64 0 z M106.60400000000001 18.92 l-0.04 0 l2.92 -2.2 c0.12 0 0.48 0.04 0.52 0.08 l-2.88 2.16 c0 0.04 0 0.04 -0.04 0.04 c-0.16 0 -0.36 -0.08 -0.48 -0.08 z M107.644 19.2 l2.84 -2.08 c0.12 0.04 0.24 0.2 0.24 0.28 l-2.8 2.08 c-0.08 -0.08 -0.2 -0.16 -0.28 -0.28 z M95.76400000000001 19.72 l0 -0.48 l2.72 -2.04 l0 0.48 z M108.084 20 l2.76 -2.08 l0 0.04 s0.04 0.24 0.04 0.44 l-2.76 2.04 z M95.76400000000001 20.84 l0 -0.48 l2.72 -2.08 l0 0.52 z M108.20400000000001 21.04 l2.72 -2.04 c0.04 0.08 0.04 0.28 0.04 0.44 l-2.76 2.08 l0 -0.4 l0 -0.08 z M95.76400000000001 21.48 l2.72 -2.08 l0 0.52 l-2.72 2.04 l0 -0.48 z M108.20400000000001 22.12 l2.76 -2.04 l0 0.2 l0 0.2 c0 0.04 0 0.08 -0.04 0.08 l-2.72 2.08 l0 -0.52 z M95.76400000000001 23.04 l0 -0.44 l2.72 -2.08 l0 0.44 z M95.76400000000001 24.16 l0 -0.52 l2.72 -2.04 l0 0.48 z M95.76400000000001 24.759999999999998 l2.72 -2.04 l0 0.48 l-2.72 2.04 l0 -0.48 z M109.56400000000001 22.72 l0 0 z M95.76400000000001 25.880000000000003 l2.72 -2.04 l0 0.48 l-2.72 2.04 l0 -0.48 z M95.76400000000001 27.48 l0 -0.48 l2.72 -2.04 l0 0.48 z M95.76400000000001 28.119999999999997 l2.72 -2.04 l0 0.48 l-2.72 2.04 l0 -0.48 z M95.76400000000001 29.240000000000002 l2.72 -2.04 l0 0.48 l-2.72 2.04 l0 -0.48 z M95.76400000000001 30.84 l0 -0.48 l2.72 -2.04 l0 0.48 z M105.924 31.64 l3 -2.24 c0.2 0 0.4 0 0.56 0.08 l-2.92 2.16 c-0.04 0.04 0 0.04 -0.04 0.04 c-0.2 0 -0.4 -0.04 -0.6 -0.04 z M95.76400000000001 31.96 l0 -0.48 l2.68 -2 c0 -0.04 0.04 -0.04 0.04 -0.04 l0 0.48 z M107.12400000000001 31.880000000000003 l2.84 -2.16 c0.04 0 0.28 0.24 0.28 0.28 l-2.84 2.12 c-0.08 -0.08 -0.2 -0.16 -0.28 -0.24 z M107.724 32.56 c0 -0.04 0.04 -0.04 0.04 -0.04 l2.76 -2.08 l0.12 0.36 c0 0.04 0 0.04 -0.04 0.04 l-2.72 2.04 c-0.08 -0.08 -0.16 -0.24 -0.16 -0.32 z M95.76400000000001 32.6 l2.72 -2.04 l0 0.48 l-2.72 2.04 l0 -0.48 z M108.004 33.44 l2.72 -2.04 s0.04 0.04 0.04 0.08 l0 0.36 l-2.76 2.08 l0 -0.04 l0 -0.44 z M108.04400000000001 35 l0 -0.48 l2.72 -2.04 l0 0.48 z M95.76400000000001 34.2 l0 -0.48 l1.24 -0.96 c-0.04 0.2 -0.04 0.36 -0.08 0.52 z M108.04400000000001 35.64 l2.72 -2.04 l0 0.48 l-2.72 2.04 l0 -0.48 z M94.20400000000001 36.48 l0 -0.48 l2.72 -2.08 l0 0.52 z M94.724 34.56 l0.92 -0.28 l-1.44 1.08 c0 -0.4 0.2 -0.68 0.52 -0.8 z M108.04400000000001 37.24 l0 -0.48 l2.72 -2.04 l0 0.48 z M94.20400000000001 37.12 l2.72 -2.08 l0 0.48 l-2.72 2.04 l0 -0.44 z M108.04400000000001 38.36 l0 -0.48 l2.72 -2.04 l0 0.48 z M94.20400000000001 38.68 l0 -0.48 l2.68 -2.04 l0.04 0 l0 0.48 z M108.04400000000001 39 l2.72 -2.04 c0.04 0.08 0.12 0.32 0.12 0.4 l-2.8 2.08 c-0.04 -0.12 -0.04 -0.24 -0.04 -0.36 l0 -0.08 z M94.20400000000001 39.32 c0 -0.04 0 -0.04 0.04 -0.04 l2.72 -2.04 c0.08 0.12 0.16 0.2 0.24 0.32 l-2.8 2.08 l-0.04 0.04 c-0.04 0 -0.16 -0.32 -0.16 -0.36 z M108.364 39.88 l2.88 -2.16 l0.12 0 c0.12 0.04 0.28 0.04 0.4 0.04 l-2.96 2.24 c-0.16 0 -0.28 -0.04 -0.44 -0.12 z M94.804 39.96 l2.96 -2.2 l0.64 0 l-2.96 2.24 l-0.64 0 l0 -0.04 z M96.924 40 l-0.64 0 l2.96 -2.24 l0.64 0 z M97.76400000000001 40 l2.96 -2.24 l0.68 0 l-3 2.24 l-0.64 0 z M99.24400000000001 40 l3 -2.24 l0.48 0 l0 0.12 l-2.8 2.12 l-0.68 0 z M110.284 40 l-0.64 0 l2.96 -2.24 l0.64 0 z M111.76400000000001 40 l-0.64 0 l2.96 -2.24 l0.68 0 z M112.60400000000001 40 l2.4 -1.8 l0 0.48 l-1.72 1.32 l-0.68 0 z M101.40400000000001 40 l-0.64 0 l1.96 -1.52 l0 0.52 z M114.12400000000001 40 l0.88 -0.68 c0 0.36 -0.44 0.68 -0.76 0.68 l-0.12 0 z M132.712 31.28 l0 -15.52 l-1.04 -0.36 c-0.28 -0.08 -0.48 -0.44 -0.48 -0.72 l0 -3.88 c0 -0.28 0.28 -0.8 0.6 -0.8 l15.88 0 c0.32 0 0.6 0.44 0.6 0.72 l0 6.4 c0 0.28 -0.32 0.72 -0.6 0.72 l-3.24 0 c-0.28 0 -0.52 -0.4 -0.56 -0.64 l-0.28 -1.24 l-5.44 0 l0 0.68 l0.6 0 l-0.6 0.44 l0 0.64 l1.44 -1.08 l0.64 0 l-2.08 1.56 l0 0.64 l2.92 -2.2 l0.68 0 l-3 2.24 l-0.6 0 l0 1.56 l2.44 0 l-0.04 -0.04 l0.04 -0.04 l2.8 -2.08 c0.08 0.08 0.2 0.16 0.32 0.24 l-2.56 1.92 l0.84 0 l2.52 -1.88 l0.36 0 l0 0.2 l-2.24 1.68 l0.44 0 c0.08 0 0.16 0.08 0.28 0.08 l1.52 -1.12 l0 0.48 l-1.2 0.92 l-0.12 0 c0.04 0.08 0.12 0.24 0.12 0.4 l0 4.28 c0 0.4 -0.32 0.76 -0.72 0.76 l-4.8 0 l0 0.68 l0.24 0 c-0.04 0.04 -0.2 0.16 -0.24 0.2 l0 0.6 l1.08 -0.8 l0.64 0 l-1.72 1.32 l0 0.6 l2.12 -1.56 l0 0.48 l-1.88 1.4 l-0.24 0 l0 1.96 l5.52 0 l0.32 -1.32 c0.04 -0.24 0.28 -0.6 0.6 -0.6 l3.12 0 c0.32 0 0.64 0.44 0.64 0.76 l0 6.4 c0 0.28 -0.32 0.72 -0.64 0.72 l-15.88 0 c-0.32 0 -0.64 -0.48 -0.64 -0.8 l0 -4 c-0.2 0.08 -0.4 0.16 -0.52 0.36 c-0.04 0.04 -0.04 0.12 -0.08 0.16 l-1.24 0.92 l0 -0.48 l2.72 -2.04 l0 0.32 c0.08 -0.04 0.52 -0.16 0.64 -0.24 z M128.432 12.920000000000002 l0.44 0 l-1.08 0.8 c0 -0.32 0.28 -0.8 0.64 -0.8 z M127.792 14.84 l0 -0.48 l1.92 -1.44 l0.64 0 z M127.792 15.48 l2.72 -2.08 l0 0.52 l-2.72 2.04 l0 -0.48 z M127.792 17.08 l0 -0.48 l2.68 -2.04 l0.04 0 l0 0.44 z M127.792 17.68 l2.76 -2.04 c0.12 0.12 0.16 0.2 0.24 0.32 l-2.84 2.08 c-0.04 0 -0.16 -0.28 -0.16 -0.36 z M128.832 18.52 l-0.44 -0.16 l2.88 -2.16 l0.04 0 l0.44 0.12 z M139.592 18.88 l3 -2.24 l0.32 0 c0.04 0.04 0.04 0.12 0.04 0.2 l-2.72 2.04 l-0.04 0 l-0.6 0 z M129.352 19.28 l0 -0.52 l2.72 -2.04 l0 0.48 z M140.392 19.88 l-0.08 -0.44 l2.76 -2.04 l0.04 -0.04 l0.08 0.44 z M129.352 19.88 l2.72 -2.04 l0 0.44 l-2.72 2.04 l0 -0.44 z M129.352 20.96 l2.72 -2.04 l0 0.48 l-2.72 2.04 l0 -0.48 z M129.352 22.56 l0 -0.48 l2.72 -2.04 l0 0.48 z M129.352 23.68 l0 -0.48 l2.72 -2.04 l0 0.48 z M129.352 24.32 l2.72 -2.04 l0 0.48 l-2.72 2.04 l0 -0.48 z M129.352 25.92 l0 -0.48 l2.72 -2.04 l0 0.48 z M129.352 27.04 l0 -0.48 l2.72 -2.04 l0 0.48 z M129.352 27.68 l2.72 -2.08 l0 0.52 l-2.72 2.04 l0 -0.48 z M129.352 28.8 l2.72 -2.08 l0 0.52 l-2.72 2.04 l0 -0.48 z M129.352 30.4 l0 -0.48 l2.72 -2.08 l0 0.52 z M139.672 29.16 l-0.44 0 l1.04 -0.76 c0 0.32 -0.24 0.76 -0.6 0.76 z M129.352 31.04 l2.72 -2.08 l0 0.48 l-2.72 2.08 l0 -0.48 z M129.352 32.12 l2.72 -2.04 l0 0.48 l-2.72 2.08 l0 -0.52 z M127.792 35.480000000000004 l2.72 -2.04 l0 0.48 l-2.72 2.08 l0 -0.52 z M127.792 36.6 l2.72 -2.04 l0 0.48 l-2.72 2.08 l0 -0.52 z M127.792 38.24 l0 -0.52 l2.72 -2.04 l0 0.48 z M127.792 38.84 l2.72 -2.04 c0.04 0.16 0.08 0.28 0.08 0.44 l-0.04 0.04 l-2.72 2 l-0.04 0.04 l0 -0.48 z M128.032 39.8 l2.84 -2.12 c0.2 0.08 0.32 0.08 0.52 0.08 l-2.96 2.24 c-0.16 0 -0.32 -0.12 -0.4 -0.2 z M129.272 40 l2.96 -2.24 l0.64 0 l-2.96 2.24 l-0.64 0 z M131.392 40 l-0.64 0 l2.96 -2.24 l0.64 0 z M132.872 40 l-0.64 0 l2.92 -2.2 c0.04 -0.04 0.08 -0.04 0.08 -0.04 l0.64 0 z M133.712 40 l3 -2.24 l0.64 0 l-2.92 2.2 c-0.04 0.04 -0.04 0.04 -0.08 0.04 l-0.64 0 z M135.232 40 l2.96 -2.24 l0.64 0 l-2.96 2.24 l-0.64 0 z M137.352 40 l-0.64 0 l2.96 -2.24 l0.68 0 z M138.192 40 l3 -2.24 l0.56 0 l-2.96 2.24 l-0.6 0 z M140.272 40 l-0.64 0 l2.96 -2.24 l0.68 0 z M141.112 40 l3 -2.24 l0.64 0 l-2.96 2.24 l-0.68 0 z M142.632 40 l2.32 -1.76 l0 0.48 l-1.68 1.28 l-0.64 0 z M144.112 40 l0.84 -0.6 c0 0.32 -0.4 0.6 -0.72 0.6 l-0.12 0 z">
            </path>
          </g>
        </svg>